<?xml version="1.0" encoding="utf-8"?>
<!-- Generator: Adobe Illustrator 26.0.3, SVG Export Plug-In . SVG Version: 6.00 Build 0)  -->
<svg version="1.1" id="Слой_1" xmlns="http://www.w3.org/2000/svg" xmlns:xlink="http://www.w3.org/1999/xlink" x="0px" y="0px"
	 viewBox="0 0 34 34" style="enable-background:new 0 0 34 34;" xml:space="preserve">
<style type="text/css">
	.st0{clip-path:url(#SVGID_00000160876785576227028300000015373502132778298544_);}
	.st1{fill:#FFFFFF;}
</style>
<g>
	<g>
		<defs>
			<rect id="SVGID_1_" width="34" height="34"/>
		</defs>
		<clipPath id="SVGID_00000024681966888205491460000001271240341999707316_">
			<use xlink:href="#SVGID_1_"  style="overflow:visible;"/>
		</clipPath>
		<g style="clip-path:url(#SVGID_00000024681966888205491460000001271240341999707316_);">
			<path class="st1" d="M2.8,1.1C2.8,1.1,2.7,1.2,2.8,1.1C2.1,1.3,1.5,1.8,1.5,2.5c0,0.8,0.6,1.4,1.4,1.4s1.4-0.6,1.4-1.4L3.5,2.7
				c0.8,0,1.3,0.2,1.6,0.5S5.7,4,5.9,4.7l5.4,22c0.2,0.8,0.4,1.6,1,2.2c0.2,0.3,0.5,0.5,0.9,0.7c-0.4,0.4-0.6,1-0.6,1.7
				c0,1.5,1.2,2.7,2.7,2.7s2.7-1.2,2.7-2.7c0-0.5-0.1-1-0.4-1.4h4.2c-0.2,0.4-0.4,0.9-0.4,1.4c0,1.5,1.2,2.7,2.7,2.7
				s2.7-1.2,2.7-2.7c0-0.7-0.3-1.3-0.7-1.8c0.1-0.2,0-0.4-0.1-0.6s-0.3-0.3-0.6-0.3H15.1c-1,0-1.5-0.2-1.8-0.6
				c-0.3-0.3-0.5-0.9-0.7-1.7l0,0l-0.5-1.8h12.5c0.3,0,0.5-0.2,0.6-0.4l4.9-12.9c0.1-0.2,0.1-0.4-0.1-0.6c-0.1-0.2-0.3-0.3-0.6-0.3
				H8.7L7.2,4.4l0,0C7,3.5,6.6,2.7,6,2.2C5.4,1.6,4.5,1.4,3.5,1.4L2.9,1.1C2.9,1.1,2.9,1.1,2.8,1.1L2.8,1.1z M9,11.6h19.6l-4.4,11.6
				H11.9L9,11.6z M15.3,29.9c0.8,0,1.4,0.6,1.4,1.4s-0.6,1.4-1.4,1.4s-1.4-0.6-1.4-1.4S14.5,29.9,15.3,29.9z M24.1,29.9
				c0.8,0,1.4,0.6,1.4,1.4s-0.6,1.4-1.4,1.4s-1.4-0.6-1.4-1.4S23.4,29.9,24.1,29.9z"/>
		</g>
	</g>
</g>
</svg>
