<svg width="278" height="261" viewBox="0 0 278 261" fill="none" xmlns="http://www.w3.org/2000/svg">
<path fill-rule="evenodd" clip-rule="evenodd" d="M68.4809 107.868C68.3555 107.806 68.2928 107.806 68.1674 107.743C64.2793 106.241 61.5827 103.611 59.5759 99.98C58.259 98.0393 57.9454 95.5351 59.1369 93.4691C61.3945 89.4624 66.2233 88.3355 69.986 86.3947C91.7469 75.1885 127.304 61.6658 152.075 68.2393C156.465 58.7234 172.645 62.417 177.097 53.0889L177.662 51.8994L178.853 52.4629C181.989 53.9654 184.623 56.2192 186.19 59.3494C186.88 60.7267 187.068 61.6658 187.319 62.8553C192.085 63.6065 194.845 75.4389 195.597 78.8821C197.165 85.9565 199.297 92.9057 201.241 99.8548C203.311 107.305 204.941 114.63 205.506 122.33C207.512 120.765 209.394 118.761 210.961 116.946L213.658 113.816L216.041 117.196C218.236 120.327 219.741 122.706 219.239 126.525C221.246 128.403 222.375 130.281 223.441 132.91C225.385 137.543 226.702 139.609 231.155 142.364L233.099 143.553L231.092 144.68C220.556 150.565 211.777 151.504 202.056 144.555C198.294 155.573 191.207 163.211 180.797 168.47C173.021 172.351 164.492 174.793 155.838 175.482C154.897 175.607 152.013 178.236 151.26 178.925C148.25 181.679 145.428 184.622 142.292 187.251C137.714 191.07 132.196 194.513 125.987 194.576C124.921 194.576 123.792 194.263 123.04 193.449C121.347 191.571 122.476 188.378 123.416 186.437C124.608 184.058 125.862 181.742 127.053 179.363C128.433 176.483 129.311 173.478 130.189 170.473C130.816 168.219 131.381 166.028 131.882 163.774C132.259 162.272 132.572 160.769 132.948 159.33C133.011 159.079 133.136 158.829 133.262 158.641C132.948 157.514 133.513 154.509 133.638 153.257C133.889 150.565 133.952 147.81 133.701 145.118C133.701 144.93 133.638 144.68 133.638 144.492L133.074 141.299C131.381 139.108 129.625 137.042 130.252 134.037C131.13 129.843 133.387 128.778 137.338 129.342C137.84 129.404 138.342 129.53 138.843 129.717C140.662 130.406 142.292 131.47 143.86 132.66C145.365 133.912 146.745 135.352 147.936 136.917C150.006 139.546 151.636 142.489 153.392 145.369C153.894 144.93 154.521 144.492 154.709 144.054C155.336 142.614 156.152 141.362 157.092 140.172C156.34 139.233 155.901 138.044 155.775 136.854L155.462 133.849L158.409 133.348C161.043 132.91 168.882 130.907 167.063 126.838C166.624 125.836 165.809 125.272 164.868 124.772C154.96 120.765 138.153 122.518 127.43 124.396C126.991 126.525 126.05 129.029 125.298 130.844C124.67 132.284 123.981 133.787 123.04 135.039C122.914 135.665 122.852 136.416 122.789 137.042C122.601 138.482 122.35 139.859 122.099 141.237C121.786 142.927 121.347 144.993 120.594 146.558L119.842 148.186L116.581 145.369C113.006 142.238 109.808 138.294 108.177 133.787C107.613 132.222 107.237 130.469 107.174 128.778C106.171 129.029 105.167 129.342 104.101 129.655C103.098 129.968 102.157 130.343 101.154 130.594C98.5197 131.282 95.5096 131.157 92.813 131.095C83.7825 130.907 73.0589 129.029 65.7216 123.457C62.3352 120.89 57.6946 115.443 60.3911 110.936C61.7081 108.745 64.2793 108.056 66.725 108.119C67.4775 107.931 67.9792 107.868 68.4809 107.868Z" fill="white"/>
<path fill-rule="evenodd" clip-rule="evenodd" d="M153.58 84.9547C156.277 85.6434 154.584 86.6451 153.016 86.2068C151.323 85.7686 150.884 84.2661 153.58 84.9547ZM126.803 113.002C126.238 113.315 125.674 113.628 125.109 113.878C125.611 112.438 124.921 111.374 125.047 110.56C124.043 113.565 116.769 118.574 113.069 120.264C112.379 122.768 104.979 125.585 100.025 127.213C103.85 126.149 107.738 125.147 111.689 124.208C109.118 128.34 111.25 135.978 118.964 142.739C119.277 142.05 119.528 141.362 119.779 140.736C117.647 139.108 115.64 136.917 113.633 134.225C115.891 136.541 118.086 138.294 120.155 139.484C120.281 139.108 120.281 138.67 120.343 138.294C118.274 137.355 116.706 135.79 115.577 133.724C116.957 135.54 118.525 136.604 120.281 136.792C120.092 135.414 119.842 134.287 120.594 133.223C123.165 129.717 124.921 122.768 124.796 122.267C124.231 122.079 123.667 121.892 123.103 121.766C140.286 118.386 157.03 117.76 166.562 121.641C168.506 122.643 169.635 123.77 170.387 125.335C172.394 129.78 169.133 134.663 159.35 136.353C159.35 136.353 159.663 139.171 162.485 139.358C161.294 140.485 159.35 142.176 158.033 145.181C157.092 147.309 155.399 147.434 155.963 147.81C164.429 153.006 177.912 145.744 177.912 134.6C179.668 144.993 172.645 154.634 159.35 153.758C157.469 155.26 155.775 157.389 154.772 159.58C155.148 157.514 155.901 155.26 157.218 153.132C151.323 152.318 148.689 136.666 138.153 132.472C137.903 132.409 137.652 132.284 137.338 132.284C141.038 139.171 145.867 145.807 152.514 152.005C144.738 145.306 138.906 138.858 134.892 132.785C134.391 133.161 134.014 133.661 133.889 134.413C133.764 134.913 133.826 135.414 133.952 135.915C137.087 141.362 144.362 148.186 150.508 152.505C145.428 149.313 140.85 146.621 137.213 143.741C137.275 143.991 137.275 144.304 137.338 144.555C137.965 150.753 136.774 157.326 136.836 157.514C136.962 157.952 137.338 158.578 137.84 159.204C136.962 159.705 136.209 160.268 135.896 160.769C140.913 162.021 146.745 162.647 152.514 160.957C145.992 163.274 139.847 163.336 135.143 162.71C134.955 163.524 134.704 164.4 134.579 165.465C140.286 165.59 146.996 165.026 153.33 161.771C146.306 165.715 139.408 167.218 134.14 167.656C133.199 172.789 132.008 179.613 128.559 184.434C132.76 184.559 138.53 182.243 142.669 179.113C138.655 183.057 132.384 185.874 127.492 185.811C127.179 186.124 126.865 186.5 126.552 186.813C131.004 187.314 138.655 184.497 144.55 178.674C138.53 185.248 130.816 188.566 125.737 188.19C124.67 190.507 125.423 191.07 126.489 191.07C139.408 190.945 150.382 172.414 156.152 171.976C156.152 171.976 156.152 171.913 156.152 171.85C163.301 171.6 171.767 169.409 179.919 165.339C188.134 161.208 195.911 154.759 199.799 142.614C195.284 154.196 187.57 160.206 179.355 163.9C171.265 167.531 162.862 169.284 155.336 169.284C155.085 168.219 154.835 166.967 154.647 165.527C155.775 167.092 158.284 167.906 162.862 167.28C171.202 166.091 178.728 163.712 185.187 159.392C191.709 155.135 197.102 148.624 200.677 138.607C207.951 145.619 217.483 148.624 227.204 143.24C221.999 140.047 221.748 134.976 219.553 131.282C216.292 132.66 212.153 132.848 208.39 131.846C212.655 132.347 216.605 131.345 218.675 130.03C218.299 129.529 217.86 129.154 217.358 128.716C214.724 130.406 211.714 131.032 207.763 129.968C211.15 130.469 214.222 129.404 216.041 127.839C217.233 123.707 215.916 121.954 213.783 118.949C202.245 132.409 196.914 127.839 192.462 122.205C195.033 124.145 197.917 126.837 199.987 126.211C198.545 113.878 193.841 103.924 186.817 96.5366C179.794 89.0867 171.077 83.9531 161.733 80.635C163.865 82.8888 158.785 84.8295 153.894 83.5774C148.501 82.2001 146.118 78.1934 150.006 77.5047C141.289 75.9396 132.133 75.9396 122.852 77.3795C142.418 73.4354 159.099 74.6249 173.146 81.7619C187.507 89.0241 198.231 102.484 202.746 123.832C202.245 116.069 200.928 109.058 198.168 103.173C195.409 97.2879 191.584 92.4047 187.194 88.2102C192.148 91.7161 196.475 95.9106 198.921 101.044C191.96 82.0749 192.838 73.3728 188.887 68.3644C185.375 69.1157 181.675 70.806 177.85 73.5606C180.797 70.9938 184.121 68.8653 187.821 67.1749C187.382 66.7993 186.943 66.4237 186.441 66.1106C182.867 67.2375 179.355 69.4913 175.843 72.9346C178.351 69.9922 181.362 67.4253 184.811 65.2342C184.811 65.2342 184.748 65.2342 184.748 65.1716C184.56 60.7266 182.804 57.659 179.48 56.0312C175.404 64.4829 155.023 61.9161 154.647 72.1207C147.686 69.8669 148.94 70.8686 140.662 70.5556C132.635 70.2426 123.918 70.9312 114.637 72.559C108.867 73.6232 102.471 75.564 95.3214 78.3186C88.1723 81.0732 80.3334 84.6417 71.7419 89.0867C70.1741 89.9005 63.8403 92.0291 62.2098 94.9089C61.7081 95.848 61.7708 97.0375 62.586 98.1018C63.7149 100.356 66.6623 102.797 71.4284 105.427C68.0419 103.361 65.9725 101.482 65.0945 99.8547L65.0318 99.7921C64.6555 98.9782 64.5301 98.227 64.7809 97.5383C65.7216 95.0341 71.4284 94.7211 74.4385 93.9072C77.0724 91.09 80.5842 91.3404 85.2249 93.469C76.7588 90.1509 90.3672 79.6333 95.635 86.9581C95.3214 85.6434 94.3808 84.5165 92.8757 83.7026C92.8757 83.7026 94.3808 84.0157 96.074 83.5774C95.9486 83.9531 95.9486 84.3287 96.8265 84.5165C97.3909 84.6417 98.2689 84.3287 97.5791 83.9531C97.5791 83.8278 97.8926 83.5774 98.1435 83.3896C109.62 87.2711 112.693 92.4047 109.494 100.982C113.445 93.0934 110.121 86.4572 99.9621 80.8854C99.9621 80.8854 101.154 80.8854 102.659 80.6976C102.408 80.948 102.157 81.0732 102.408 81.3863C103.223 82.3879 104.979 81.0732 104.854 80.6976C104.791 80.5098 104.728 80.3846 104.665 80.2594C105.606 80.0089 106.61 79.6333 107.362 79.0699C107.738 79.1951 108.177 79.3203 108.491 79.4455C106.735 80.1968 108.365 81.261 109.432 80.1968C109.494 80.1342 109.494 79.9463 109.369 79.7585C130.565 86.332 126.865 94.2829 104.54 106.366C111.501 111.374 106.233 115.256 88.9249 117.697C85.852 118.135 63.025 121.015 72.0555 112.188C70.2996 112.313 68.2928 112.376 67.7284 111.812C70.425 112.313 74.3758 111.499 78.5775 109.746C79.0165 109.558 79.5181 109.308 79.9571 109.12C80.9605 108.619 82.0266 108.056 82.9673 107.493C81.5249 105.677 79.769 104.487 77.5114 103.048C80.0825 104.174 81.8385 105.051 83.7198 106.992C83.9707 106.866 84.2215 106.679 84.4723 106.553C82.4029 104.425 79.4554 102.86 76.1944 101.482C79.769 102.296 82.4656 103.423 85.4757 105.927C85.7266 105.802 85.9147 105.614 86.1029 105.489C83.2181 102.609 79.8944 100.982 75.3165 100.23C79.3927 100.23 83.2808 101.795 87.0435 104.926C87.4198 104.613 87.7961 104.3 88.1723 103.987C83.469 97.5383 62.586 94.4707 69.2962 102.046C71.6792 104.738 75.0656 105.176 78.0131 109.058C76.069 110.435 70.7385 110.936 67.164 111.061C65.6589 110.998 63.7149 112.501 63.2132 114.003C66.4114 123.645 76.7588 128.653 99.2723 127.526C88.9249 127.714 82.2147 125.898 76.4453 122.893C78.8283 123.019 81.4622 122.893 84.2215 122.643C93.1265 125.961 95.0706 127.651 102.784 124.771C94.3181 127.338 92.4367 125.398 87.6706 122.267C89.0503 122.079 90.3672 121.892 91.6842 121.579C99.774 123.332 104.352 123.77 111.815 120.577C103.725 123.457 99.7112 123.269 94.6943 120.953C95.9486 120.64 97.2028 120.327 98.3943 120.013C107.738 119.325 115.138 116.821 122.225 111.061C117.333 114.442 109.055 118.511 102.596 118.636C106.484 117.196 109.745 115.443 111.689 113.44C108.177 115.756 103.035 117.76 96.513 119.137C90.0537 120.514 82.152 121.266 73.3097 121.078C88.674 119.888 99.4604 118.073 105.418 115.819C111.376 113.565 112.442 110.873 108.554 107.806C136.523 93.5316 132.259 82.8888 108.93 77.8178C129.436 81.1984 147.811 93.9072 114.386 107.931C125.611 103.548 132.447 98.853 134.704 93.8446C134.892 94.0951 135.269 94.4081 135.708 94.5959C137.338 95.2845 137.464 93.4064 135.52 93.0308C135.331 92.9682 135.143 93.0308 135.018 92.9682C135.331 92.0291 135.457 91.1526 135.457 90.2136C135.582 90.2762 135.645 90.2761 135.77 90.2761C136.209 90.4014 138.279 90.2136 138.404 89.2745C139.282 89.2745 140.097 89.3371 140.975 89.3997C141.289 90.1509 142.292 90.5892 143.609 90.0257C143.923 89.9005 144.048 89.7753 144.111 89.6501C145.428 89.7753 146.745 89.9631 148.062 90.2136C147.999 90.777 148.501 91.2152 149.63 91.0274C149.692 91.0274 150.947 91.2778 151.197 90.777C152.953 91.1526 154.646 91.6535 156.277 92.1543C155.713 93.156 157.594 94.2829 158.472 94.1577C159.162 94.0324 158.221 93.8446 158.848 93.4064C158.974 93.3438 159.036 93.2186 159.099 93.0934C159.914 93.4064 160.73 93.7194 161.545 94.0951C161.106 94.5959 162.548 94.9715 162.924 94.7211C165.621 95.9732 168.129 97.3505 170.513 98.9156C169.885 99.7921 171.202 101.608 171.767 99.7295C172.519 100.23 173.272 100.794 174.024 101.357C173.585 101.983 173.648 102.609 174.401 103.173C175.341 103.799 175.968 103.486 175.655 102.672C177.348 104.112 179.041 105.614 180.484 107.242C177.223 107.993 183.118 112.438 181.424 108.306C194.97 124.145 199.611 152.38 173.962 160.769C185.563 155.323 187.633 145.995 184.873 137.418C182.114 128.778 174.338 121.078 167.44 119.2C162.423 117.196 154.521 116.132 141.289 117.134C133.199 117.697 125.674 118.824 120.97 117.948C126.803 117.447 131.192 116.695 134.14 115.819C129.875 116.57 126.552 116.633 124.231 116.069C123.416 116.508 122.664 116.946 121.848 117.384C123.291 116.382 124.231 115.506 124.733 114.692C130.064 114.191 134.077 113.503 136.899 112.689C132.447 113.503 129.123 113.565 126.803 113.002ZM141.289 114.692C155.085 113.252 166.374 114.692 174.338 119.262C182.177 123.77 186.316 131.408 186.943 141.299C185.25 132.409 180.672 125.272 172.833 120.765C164.994 116.195 154.208 114.254 141.289 114.692ZM142.355 112.188C156.214 110.873 167.502 112.313 175.592 116.821C183.556 121.328 187.758 128.903 188.511 138.858C186.755 129.968 182.051 122.831 174.212 118.323C166.123 113.816 155.274 111.875 142.355 112.188ZM131.694 110.623C125.799 109.934 138.592 103.298 125.047 109.12C131.255 102.735 139.596 98.853 147.184 96.9749C154.835 95.0967 161.67 95.0341 164.618 96.0984C164.618 96.0984 164.367 97.1001 164.116 97.6009C158.158 96.9749 151.824 96.5993 139.345 101.169C151.574 97.1627 157.657 97.7887 162.987 98.6652C162.548 99.1035 161.858 99.6043 161.106 100.043C157.092 99.5417 152.263 98.6652 144.048 101.169C151.135 99.2287 155.901 99.9799 159.852 100.669C157.657 101.67 156.591 103.611 154.145 105.301C151.197 107.367 146.808 109.245 143.233 110.372C140.411 111.311 134.014 110.623 131.694 110.623ZM97.3282 88.085C97.4536 88.085 98.2689 87.9598 98.3316 88.2728C99.0841 90.464 95.3841 88.3354 97.3282 88.085ZM108.115 86.8329C108.177 86.7703 108.177 86.7077 108.24 86.6451C109.369 85.9564 108.867 87.8972 108.115 86.8329ZM116.204 89.9005C116.142 89.7753 116.204 89.6501 116.33 89.6501C118.086 88.8988 116.643 91.0274 116.204 89.9005ZM111.752 88.9615C111.94 88.7736 111.752 88.8988 112.003 88.8988C113.445 88.9614 110.686 90.0257 111.752 88.9615ZM115.828 85.8312C115.954 85.8312 116.643 85.7686 116.643 86.019C116.392 87.4589 114.386 86.019 115.828 85.8312ZM111.062 87.3337C111.125 87.0833 110.999 86.8329 111.187 86.7077C112.881 85.4556 113.445 87.1459 113.445 87.1459C115.076 87.4589 110.623 89.0241 111.062 87.3337ZM109.369 84.2035C109.682 83.5148 110.811 82.6384 111.438 83.1392C112.818 84.4539 108.616 85.7686 109.369 84.2035ZM106.547 82.4505C107.55 81.8871 107.676 82.3879 106.986 83.4522C106.296 84.4539 106.547 83.7652 105.794 84.1409C105.042 84.5165 104.791 83.8904 104.979 83.7652C104.791 83.327 106.359 82.5757 106.547 82.4505ZM104.54 89.3371C106.108 88.8362 105.794 90.2135 105.355 90.464C103.098 91.8413 102.471 89.9005 104.54 89.3371ZM95.635 92.2795C97.0774 92.1543 96.513 92.7803 95.635 92.5925C95.635 92.6551 95.3842 92.4047 95.635 92.2795ZM100.338 90.9022C100.338 90.8396 100.338 90.8396 100.401 90.777C101.718 89.9005 101.216 92.0291 100.338 90.9022ZM99.7112 88.2102C99.7112 88.1476 99.6485 88.1476 99.6485 88.085C98.896 87.5215 100.276 86.7077 100.777 86.8329C103.098 87.4589 100.526 89.2119 99.7112 88.2102ZM97.2655 86.2694C97.2655 86.2068 97.3282 86.2068 97.3909 86.1442C98.1435 85.706 97.3909 87.5215 97.2655 86.2694ZM86.73 91.7787C85.6639 91.2152 85.7266 90.0257 86.8554 89.1493C87.9842 88.2102 89.8028 87.9598 90.8689 88.4606C91.935 89.0241 91.8723 90.1509 90.7435 91.09C89.6147 92.0291 87.7961 92.3421 86.73 91.7787ZM84.7232 90.7144C84.8486 91.403 85.413 91.9665 86.291 92.2795C85.7266 92.2169 85.9147 92.4047 84.7232 91.7787C83.5317 91.1526 82.9046 88.5232 85.0368 86.8329C87.1689 85.1425 90.5554 84.5165 92.4994 85.5808C94.5062 86.5825 93.3774 89.6501 92.2486 90.5266C91.1198 91.4656 91.9977 90.7144 91.8723 90.777C91.935 90.7144 91.9977 90.7144 92.0604 90.6518C95.196 88.1476 92.9384 86.3946 90.1164 86.4573C87.6706 86.5199 84.3469 88.3354 84.7232 90.7144ZM89.2384 89.8379C88.8622 89.6501 88.8622 89.2119 89.3011 88.8988C89.7401 88.5858 90.3672 88.4606 90.7435 88.6484C91.1198 88.8362 91.1198 89.2745 90.6808 89.5875C90.2418 89.9005 89.6147 90.0257 89.2384 89.8379ZM89.4266 105.239C89.3639 109.058 79.5181 111.311 76.5707 112.501C82.3402 109.746 86.73 107.743 89.4266 105.239ZM75.9436 111.124C70.1741 116.883 79.8944 118.574 102.533 112.564C77.9504 121.203 65.0318 116.946 75.9436 111.124ZM82.0893 97.914C85.0995 98.3522 88.7994 100.105 91.3706 101.858C89.6147 97.9766 82.2775 96.7245 79.33 95.5976C84.1588 96.6619 90.4299 98.1018 91.935 100.982C92.5621 102.171 92.6876 104.049 91.1198 107.305C91.1825 105.802 88.4232 102.422 84.4723 99.9799C86.6673 101.169 89.3011 102.735 91.3706 104.362C91.3706 101.044 83.9707 98.2896 82.0893 97.914ZM128.057 103.11C123.73 108.056 117.208 113.252 111.689 114.379C118.086 112.626 123.228 106.992 124.043 105.176C126.301 104.049 126.364 104.049 128.057 103.11ZM167.44 99.9799C167.377 99.9799 167.314 100.043 167.252 100.043C166.499 98.9782 168.192 98.9782 168.38 99.1035C170.826 101.42 168.004 101.482 167.44 99.9799ZM164.931 98.54C164.931 98.54 164.743 97.7887 164.743 97.7261C165.997 97.1627 166.374 98.6652 166.311 98.7278C165.809 98.9156 166.123 98.853 165.872 98.9782C165.307 99.2913 165.057 98.7904 164.931 98.54ZM174.589 107.555C174.589 107.493 174.463 107.179 174.589 107.179C175.279 106.866 174.902 108.619 174.589 107.555ZM183.995 112.939C184.121 113.002 184.873 115.193 184.748 115.506C183.933 118.574 182.616 111.875 183.995 112.939ZM180.296 112.25C179.982 112.25 180.107 111.937 180.107 111.812C179.919 109.496 181.362 111.75 181.362 111.75C181.863 112.939 180.296 112.25 180.296 112.25ZM176.596 108.682C176.596 108.557 176.721 108.369 176.846 108.432C178.226 109.245 176.721 109.684 176.596 108.682ZM175.655 104.863C176.345 104.675 177.223 104.801 177.411 105.239C179.794 109.621 173.836 105.427 175.655 104.863ZM171.829 105.364C171.892 105.301 172.018 105.301 172.08 105.239C172.833 105.364 171.892 106.992 171.829 105.364ZM168.129 104.3C168.192 104.237 168.192 104.174 168.255 104.049C169.258 103.173 169.823 106.178 168.129 104.3ZM170.575 102.484C170.763 101.482 172.018 101.67 172.206 102.046C173.899 105.051 170.387 103.486 170.575 102.484ZM163.113 101.169C164.116 99.4165 165.872 102.547 163.113 101.169V101.169ZM166.248 101.608C166.248 101.482 166.499 101.357 166.624 101.482C167.565 102.86 166.06 102.484 166.248 101.608ZM151.135 94.7211C151.135 94.5959 151.197 94.5959 151.26 94.5959C152.389 94.5333 151.009 95.6602 151.135 94.7211ZM152.013 93.0934C151.887 92.7803 152.64 92.5925 152.828 92.6551C155.399 93.9698 152.389 94.2829 152.013 93.0934ZM147.372 93.469C147.372 93.4064 148.062 92.6551 149.002 92.9056C152.138 93.782 146.87 95.0341 147.372 93.469ZM132.948 98.7278C132.948 98.6026 133.387 98.4148 133.513 98.4774C134.892 99.2913 132.886 99.4165 132.948 98.7278ZM136.335 96.9749C136.335 96.3488 135.896 96.2862 137.338 96.4114C139.721 96.5366 136.335 98.227 136.335 96.9749ZM139.909 95.848C139.847 95.7854 139.847 95.6602 139.909 95.5976C141.477 94.7837 141.164 96.8497 139.909 95.848ZM144.048 94.4707C144.111 94.4081 144.111 94.4081 144.111 94.3455C145.302 93.7194 144.989 95.4724 144.048 94.4707ZM143.735 91.5282C143.672 90.9648 144.425 90.7144 145.052 90.7144C145.992 90.7144 145.804 91.403 145.804 91.403C145.992 92.0917 144.989 92.1543 144.801 92.2169C144.362 92.1543 143.735 91.9665 143.735 91.5282ZM138.279 92.6551C138.216 92.5299 137.965 91.7787 139.282 91.5909C141.54 91.2778 142.794 93.2812 140.913 93.4064C139.596 93.5316 138.906 93.7194 138.279 92.6551ZM67.7911 91.6535C67.1013 92.2795 66.725 92.7804 66.5996 93.156C66.6623 93.156 66.4742 93.2186 66.725 93.0934C66.9759 92.9682 67.6657 92.9682 67.7284 93.2186C67.7911 93.469 67.6657 93.6568 67.4775 93.9072C68.1674 93.9698 69.1707 93.782 70.6131 93.469C64.342 95.535 63.4013 94.9089 67.7911 91.6535Z" fill="#0166BA"/>
<path fill-rule="evenodd" clip-rule="evenodd" d="M163.928 48.8944C155.775 45.3885 147.623 43.6356 139.47 43.6356C131.318 43.6356 123.103 45.3885 114.95 48.8944C114.323 49.1448 114.009 49.8961 114.26 50.5221C114.511 51.1482 115.264 51.4612 115.891 51.2108C123.73 47.8301 131.631 46.1398 139.47 46.1398C147.309 46.1398 155.148 47.8301 162.987 51.2108C163.614 51.4612 164.367 51.1482 164.618 50.5221C164.868 49.9587 164.555 49.2074 163.928 48.8944ZM171.328 33.6188C172.143 33.6188 172.833 34.37 172.77 35.1839C172.77 36.0604 172.018 36.6864 171.202 36.6864C170.889 36.6864 170.638 36.5612 170.387 36.436C168.945 38.5646 165.935 43.0721 163.426 47.4545C154.96 43.9486 146.431 42.1957 139.408 42.2583C132.384 42.1957 123.855 43.9486 115.389 47.4545C112.943 43.0721 109.996 38.5646 108.554 36.436C108.303 36.6238 107.989 36.749 107.613 36.6864C106.798 36.6864 106.108 35.9352 106.171 35.1213C106.171 34.2448 106.923 33.6188 107.738 33.6188C108.554 33.6188 109.243 34.37 109.181 35.1839C109.181 35.3091 109.181 35.4343 109.118 35.5595C114.072 37.2499 120.469 41.2566 120.469 41.2566C122.037 37.7507 123.103 35.9352 124.043 34.2448C123.667 34.057 123.416 33.6188 123.416 33.1179C123.416 32.4293 123.981 31.8658 124.67 31.9284C125.36 31.9284 125.862 32.5545 125.862 33.1805C125.862 33.3684 125.799 33.5562 125.737 33.744L132.572 37.3751L138.843 25.7932C138.342 25.5427 138.028 24.9793 138.091 24.4158C138.091 23.5394 138.843 22.9133 139.658 22.9133C140.474 22.9133 141.164 23.6646 141.101 24.4785C141.101 25.0419 140.787 25.5427 140.286 25.7932L146.431 37.3751L153.267 33.744C153.204 33.5562 153.141 33.3684 153.141 33.1179C153.141 32.4293 153.706 31.8658 154.396 31.9284C155.085 31.9284 155.587 32.4919 155.587 33.1805C155.587 33.6188 155.336 34.057 154.96 34.2448C155.838 35.9352 156.967 37.7507 158.472 41.2566C158.472 41.2566 164.868 37.2499 169.885 35.5595C169.823 35.4343 169.823 35.2465 169.823 35.0587C169.76 34.2448 170.513 33.6188 171.328 33.6188ZM161.357 43.8234C161.858 43.1347 162.36 42.3835 162.862 41.6948C163.113 41.5696 163.363 41.4444 163.614 41.3192C162.862 42.5713 162.046 43.8234 161.357 45.0755C160.479 44.7625 159.601 44.4494 158.723 44.1364C159.162 43.886 159.601 43.573 160.04 43.3225C160.416 43.4478 160.918 43.6356 161.357 43.8234ZM152.828 37.9385L152.577 37.5003L145.867 41.0688C149.065 41.4444 152.263 42.133 155.336 43.0721C155.148 42.6339 154.96 42.1957 154.709 41.7574C152.514 41.194 150.508 41.0062 148.125 40.6305L152.828 37.9385ZM140.725 33.4936L139.345 30.8642L133.889 40.9436C135.708 40.7557 137.526 40.6305 139.282 40.6931C141.101 40.6931 142.919 40.7557 144.738 40.9436L144.174 39.8167C143.358 39.7541 142.48 39.6915 141.665 39.6915C140.097 39.6289 138.467 39.6915 136.774 39.7541L140.725 33.4936ZM128.496 38.815L126.05 37.5003C125.799 37.9385 125.548 38.3768 125.298 38.815C124.545 40.1923 123.855 41.5696 123.228 43.0095C126.364 42.133 129.562 41.4444 132.76 41.0062L131.506 40.3801C130.064 40.6305 128.559 40.8809 127.116 41.2566C127.555 40.4427 127.994 39.6288 128.496 38.815ZM119.904 44.0738C119.026 44.3868 118.148 44.6999 117.27 45.0129C116.581 43.7608 115.828 42.5087 115.013 41.2566C116.706 42.1957 118.337 43.1347 119.904 44.0738Z" fill="#F9C02F"/>
<path d="M50.1065 216.425V201.525H56.3149C57.381 201.525 58.259 201.713 59.0742 202.089C59.8268 202.464 60.3912 202.965 60.8301 203.654C61.2691 204.343 61.4573 205.156 61.4573 206.096C61.4573 207.035 61.2691 207.848 60.8301 208.537C60.3912 209.226 59.8268 209.727 59.0742 210.102C58.3217 210.478 57.381 210.666 56.3776 210.666H52.0505V216.551H50.1065V216.425ZM52.0505 208.913H56.0641C57.1929 208.913 58.0708 208.662 58.6352 208.224C59.1996 207.786 59.5132 207.035 59.5132 206.033C59.5132 205.031 59.1996 204.343 58.6352 203.842C58.0708 203.404 57.1929 203.153 56.0641 203.153H52.0505V208.913Z" fill="#F9C02F" stroke="#F9C02F" stroke-width="2" stroke-miterlimit="10"/>
<path d="M64.5301 216.425V205.908H66.4742V209.476H69.9233C71.3657 209.476 72.4318 209.789 73.1216 210.353C73.8741 210.979 74.1877 211.793 74.1877 212.857C74.1877 213.546 73.9996 214.172 73.686 214.672C73.3724 215.173 72.8707 215.611 72.2436 215.862C71.6165 216.175 70.8013 216.3 69.9233 216.3H64.5301V216.425ZM66.4115 214.985H69.6098C70.425 214.985 71.1148 214.798 71.5538 214.485C71.9928 214.172 72.2436 213.671 72.2436 212.919C72.2436 212.168 71.9928 211.667 71.5538 211.354C71.1148 211.041 70.425 210.916 69.6098 210.916H66.4115V214.985ZM76.1945 216.425V205.908H78.1385V216.425H76.1945Z" fill="#F9C02F" stroke="#F9C02F" stroke-width="2" stroke-miterlimit="10"/>
<path d="M86.9808 216.613C85.9147 216.613 84.9741 216.363 84.1588 215.924C83.3436 215.486 82.7165 214.798 82.2775 213.921C81.8385 213.045 81.6504 211.98 81.6504 210.728V209.101C81.6504 208.537 81.7131 207.911 81.7758 207.348C81.8385 206.784 81.9639 206.221 82.2148 205.657C82.4029 205.156 82.7165 204.656 83.0927 204.155C83.469 203.717 83.9707 203.278 84.6605 202.903C85.2876 202.527 86.1029 202.214 87.0436 201.964L90.8689 200.962L91.4334 202.527L87.1063 203.591C85.852 203.904 84.9114 204.405 84.2842 205.219C83.6571 205.97 83.3436 206.909 83.3436 208.036V208.475H83.4063C83.5944 207.974 83.908 207.535 84.2842 207.16C84.6605 206.784 85.0995 206.471 85.6012 206.283C86.1029 206.096 86.73 205.97 87.3571 205.97C88.0469 205.97 88.7368 206.096 89.3012 206.346C89.8656 206.596 90.3673 206.909 90.8062 207.41C91.2452 207.848 91.5588 208.412 91.8096 209.101C92.0605 209.727 92.1859 210.478 92.1859 211.292C92.1859 212.356 91.935 213.295 91.4961 214.109C91.0571 214.923 90.43 215.549 89.6774 215.987C88.9249 216.425 88.0469 216.613 86.9808 216.613ZM86.9181 215.048C87.9215 215.048 88.7368 214.735 89.3639 214.109C89.991 213.483 90.2418 212.544 90.2418 211.354C90.2418 210.165 89.9283 209.226 89.3639 208.6C88.7368 207.911 87.9215 207.598 86.9181 207.598C85.9147 207.598 85.0995 207.911 84.4724 208.6C83.8453 209.226 83.5317 210.102 83.5317 211.229C83.5317 212.481 83.8453 213.483 84.4097 214.109C85.0368 214.735 85.9147 215.048 86.9181 215.048Z" fill="#F9C02F" stroke="#F9C02F" stroke-width="2" stroke-miterlimit="10"/>
<path d="M100.338 216.613C99.2723 216.613 98.3316 216.363 97.5164 215.924C96.7011 215.486 96.1367 214.86 95.6977 214.046C95.2588 213.232 95.0706 212.293 95.0706 211.166C95.0706 210.102 95.2588 209.163 95.6977 208.349C96.1367 207.535 96.7011 206.909 97.5164 206.471C98.3316 206.033 99.2096 205.782 100.276 205.782C101.342 205.782 102.282 206.033 103.098 206.471C103.85 206.909 104.477 207.535 104.916 208.349C105.355 209.163 105.543 210.102 105.543 211.166C105.543 212.293 105.355 213.232 104.916 214.046C104.477 214.86 103.913 215.486 103.098 215.924C102.345 216.425 101.404 216.613 100.338 216.613ZM100.338 214.985C101.404 214.985 102.22 214.61 102.784 213.921C103.349 213.232 103.662 212.293 103.662 211.166C103.662 210.04 103.349 209.101 102.784 208.412C102.22 207.723 101.404 207.41 100.338 207.41C99.2723 207.41 98.457 207.723 97.8926 208.412C97.2655 209.101 97.0147 209.977 97.0147 211.166C97.0147 212.293 97.3282 213.232 97.8926 213.921C98.457 214.61 99.2723 214.985 100.338 214.985Z" fill="#F9C02F" stroke="#F9C02F" stroke-width="2" stroke-miterlimit="10"/>
<path d="M109.055 216.425V205.908H110.999V210.227H113.006L116.581 205.908H118.713L114.511 211.041L114.198 210.54C114.637 210.603 115.013 210.728 115.326 210.854C115.64 211.041 115.954 211.229 116.204 211.542C116.455 211.855 116.769 212.231 117.082 212.732L119.34 216.363H117.27L115.326 213.295C115.138 212.919 114.887 212.669 114.699 212.419C114.511 212.168 114.26 212.043 113.947 211.918C113.633 211.793 113.32 211.73 112.818 211.73H110.999V216.363H109.055V216.425Z" fill="#F9C02F" stroke="#F9C02F" stroke-width="2" stroke-miterlimit="10"/>
<path d="M126.238 216.613C125.172 216.613 124.231 216.363 123.416 215.924C122.601 215.486 122.037 214.86 121.598 214.046C121.159 213.232 120.97 212.293 120.97 211.166C120.97 210.102 121.159 209.163 121.598 208.349C122.037 207.535 122.601 206.909 123.416 206.471C124.231 206.033 125.109 205.782 126.176 205.782C127.242 205.782 128.182 206.033 128.998 206.471C129.75 206.909 130.377 207.535 130.816 208.349C131.255 209.163 131.443 210.102 131.443 211.166C131.443 212.293 131.255 213.232 130.816 214.046C130.377 214.86 129.813 215.486 128.998 215.924C128.245 216.425 127.304 216.613 126.238 216.613ZM126.238 214.985C127.304 214.985 128.12 214.61 128.684 213.921C129.248 213.232 129.562 212.293 129.562 211.166C129.562 210.04 129.248 209.101 128.684 208.412C128.12 207.723 127.304 207.41 126.238 207.41C125.172 207.41 124.357 207.723 123.792 208.412C123.165 209.101 122.915 209.977 122.915 211.166C122.915 212.293 123.228 213.232 123.792 213.921C124.357 214.61 125.172 214.985 126.238 214.985Z" fill="#F9C02F" stroke="#F9C02F" stroke-width="2" stroke-miterlimit="10"/>
<path d="M134.955 216.425V205.908H136.899V210.165H142.919V205.908H144.801V216.425H142.919V211.793H136.899V216.425H134.955Z" fill="#F9C02F" stroke="#F9C02F" stroke-width="2" stroke-miterlimit="10"/>
<path d="M153.706 216.613C152.64 216.613 151.699 216.363 150.884 215.924C150.069 215.486 149.441 214.86 149.002 214.046C148.564 213.232 148.375 212.293 148.375 211.166C148.375 210.04 148.626 209.101 149.065 208.287C149.504 207.473 150.131 206.847 150.947 206.409C151.762 205.97 152.702 205.782 153.769 205.782C154.521 205.782 155.211 205.908 155.838 206.158C156.465 206.409 157.03 206.722 157.469 207.16L156.779 208.6C156.34 208.224 155.901 207.974 155.399 207.786C154.897 207.598 154.396 207.473 153.894 207.473C152.765 207.473 151.887 207.786 151.26 208.474C150.633 209.163 150.319 210.04 150.319 211.292C150.319 212.481 150.633 213.42 151.26 214.046C151.887 214.672 152.765 215.048 153.894 215.048C154.396 215.048 154.897 214.923 155.399 214.735C155.901 214.547 156.34 214.297 156.716 213.921L157.406 215.361C156.967 215.737 156.465 216.05 155.838 216.3C155.211 216.551 154.396 216.613 153.706 216.613Z" fill="#F9C02F" stroke="#F9C02F" stroke-width="2" stroke-miterlimit="10"/>
<path d="M165.245 216.613C164.053 216.613 163.05 216.425 162.172 215.987C161.294 215.549 160.667 214.923 160.165 214.109C159.726 213.295 159.475 212.293 159.475 211.166C159.475 210.102 159.663 209.226 160.102 208.412C160.541 207.598 161.106 206.972 161.921 206.471C162.736 205.97 163.677 205.782 164.743 205.782C165.809 205.782 166.687 206.033 167.377 206.471C168.129 206.909 168.631 207.535 169.007 208.349C169.384 209.163 169.572 210.102 169.572 211.229V211.793H160.855V210.353H168.318L167.941 210.791C167.941 209.664 167.69 208.725 167.126 208.099C166.562 207.473 165.746 207.16 164.743 207.16C164.053 207.16 163.489 207.285 162.987 207.598C162.485 207.911 162.046 208.287 161.796 208.85C161.482 209.414 161.357 210.04 161.357 210.853V211.041C161.357 211.918 161.545 212.606 161.858 213.17C162.172 213.733 162.611 214.172 163.238 214.485C163.802 214.798 164.555 214.923 165.37 214.923C165.935 214.923 166.499 214.86 167.126 214.672C167.753 214.547 168.318 214.234 168.819 213.796L169.446 215.173C168.882 215.611 168.255 215.924 167.502 216.175C166.75 216.551 165.997 216.613 165.245 216.613Z" fill="#F9C02F" stroke="#F9C02F" stroke-width="2" stroke-miterlimit="10"/>
<path d="M173.084 220.244V205.908H174.84V208.162H174.902C175.216 207.41 175.718 206.784 176.407 206.346C177.097 205.908 177.85 205.72 178.79 205.72C179.794 205.72 180.609 205.97 181.362 206.409C182.114 206.847 182.679 207.473 183.055 208.287C183.431 209.101 183.619 210.04 183.619 211.167C183.619 212.231 183.431 213.17 183.055 213.984C182.679 214.798 182.114 215.424 181.362 215.925C180.609 216.363 179.794 216.613 178.79 216.613C177.912 216.613 177.16 216.425 176.533 215.987C175.906 215.549 175.404 214.985 175.09 214.297H175.028V220.244H173.084ZM178.351 215.048C179.418 215.048 180.233 214.672 180.797 213.984C181.362 213.295 181.675 212.356 181.675 211.167C181.675 209.977 181.362 209.038 180.797 208.349C180.233 207.661 179.418 207.348 178.351 207.348C177.348 207.348 176.533 207.661 175.906 208.349C175.279 209.038 175.028 209.977 175.028 211.167C175.028 212.356 175.341 213.295 175.906 213.984C176.533 214.672 177.348 215.048 178.351 215.048Z" fill="#F9C02F" stroke="#F9C02F" stroke-width="2" stroke-miterlimit="10"/>
<path d="M187.131 216.425V205.908H192.838C193.716 205.908 194.406 206.033 194.97 206.221C195.534 206.409 195.973 206.722 196.224 207.16C196.475 207.535 196.663 208.036 196.663 208.662C196.663 209.226 196.475 209.664 196.162 210.102C195.848 210.478 195.409 210.791 194.907 210.979V211.041C195.346 211.167 195.785 211.354 196.099 211.542C196.412 211.793 196.663 212.043 196.789 212.419C196.914 212.794 197.039 213.107 197.039 213.546C197.039 214.422 196.663 215.111 195.973 215.674C195.284 216.175 194.28 216.488 193.026 216.488H187.131V216.425ZM189.012 210.415H192.712C193.402 210.415 193.904 210.29 194.28 209.977C194.656 209.664 194.845 209.288 194.845 208.788C194.845 208.287 194.656 207.848 194.28 207.598C193.904 207.348 193.402 207.222 192.712 207.222H189.012V210.415ZM189.012 215.111H192.901C193.59 215.111 194.155 214.985 194.594 214.735C194.97 214.485 195.221 214.046 195.221 213.483C195.221 212.919 195.033 212.481 194.594 212.231C194.217 211.98 193.653 211.793 192.901 211.793H189.012V215.111Z" fill="#F9C02F" stroke="#F9C02F" stroke-width="2" stroke-miterlimit="10"/>
<path d="M200.426 216.425V205.908H202.37V210.165H208.39V205.908H210.272V216.425H208.39V211.793H202.37V216.425H200.426Z" fill="#F9C02F" stroke="#F9C02F" stroke-width="2" stroke-miterlimit="10"/>
<path d="M214.411 216.425V205.908H216.355V209.476H219.804C221.246 209.476 222.312 209.789 223.002 210.353C223.755 210.979 224.068 211.793 224.068 212.857C224.068 213.546 223.88 214.172 223.566 214.672C223.253 215.173 222.751 215.611 222.124 215.862C221.497 216.175 220.682 216.3 219.804 216.3H214.411V216.425ZM216.355 214.985H219.553C220.368 214.985 221.058 214.798 221.497 214.485C221.936 214.172 222.187 213.671 222.187 212.919C222.187 212.168 221.936 211.667 221.497 211.354C221.058 211.041 220.368 210.916 219.553 210.916H216.355V214.985ZM226.138 216.425V205.908H228.082V216.425H226.138Z" fill="#F9C02F" stroke="#F9C02F" stroke-width="2" stroke-miterlimit="10"/>
<path d="M232.158 216.425V205.908H233.977V213.921L239.997 205.908H241.815V216.425H239.997V208.412L233.977 216.425H232.158ZM237.049 204.468C236.422 204.468 235.858 204.343 235.356 204.155C234.854 203.904 234.416 203.591 234.039 203.153C233.663 202.715 233.412 202.151 233.287 201.463L234.604 201.15C234.792 201.776 235.105 202.277 235.544 202.59C235.921 202.903 236.485 203.09 237.112 203.09C237.739 203.09 238.241 202.965 238.617 202.652C238.993 202.339 239.37 201.838 239.683 201.15L240.938 201.463C240.749 202.151 240.436 202.715 240.06 203.216C239.683 203.654 239.244 203.967 238.743 204.217C238.241 204.468 237.614 204.468 237.049 204.468Z" fill="#F9C02F" stroke="#F9C02F" stroke-width="2" stroke-miterlimit="10"/>
<path d="M102.847 242.031C101.843 242.031 100.903 241.906 100.088 241.655C99.2096 241.405 98.5197 241.092 98.018 240.716L98.6452 239.401C99.1468 239.777 99.774 240.09 100.526 240.215C101.279 240.403 102.032 240.466 102.784 240.466C103.85 240.466 104.603 240.341 105.104 240.09C105.606 239.84 105.794 239.401 105.794 238.838C105.794 238.275 105.606 237.899 105.23 237.649C104.854 237.398 104.289 237.273 103.537 237.273H100.652V235.833H103.349C103.976 235.833 104.477 235.708 104.854 235.457C105.23 235.207 105.418 234.831 105.418 234.33C105.418 233.83 105.23 233.391 104.791 233.141C104.352 232.891 103.725 232.765 102.847 232.765C102.094 232.765 101.342 232.828 100.652 233.016C99.9621 233.204 99.335 233.454 98.7079 233.892L98.0807 232.452C98.7079 232.014 99.4604 231.701 100.276 231.513C101.091 231.325 102.032 231.2 102.972 231.2C104.415 231.2 105.418 231.451 106.171 231.951C106.86 232.452 107.237 233.204 107.237 234.143C107.237 234.643 107.111 235.144 106.798 235.52C106.484 235.896 106.045 236.209 105.418 236.396V236.459C105.92 236.584 106.359 236.772 106.672 236.96C106.986 237.21 107.237 237.461 107.425 237.774C107.613 238.087 107.676 238.462 107.676 238.901C107.676 239.84 107.299 240.591 106.484 241.154C105.669 241.718 104.477 242.031 102.847 242.031Z" fill="#F9C02F" stroke="#F9C02F" stroke-width="2" stroke-miterlimit="10"/>
<path d="M114.637 242.031C113.884 242.031 113.194 241.905 112.63 241.592C112.003 241.342 111.564 240.966 111.187 240.466C110.811 239.965 110.686 239.464 110.686 238.838C110.686 238.024 110.937 237.398 111.376 236.897C111.815 236.396 112.567 236.083 113.508 235.895C114.448 235.708 115.64 235.582 117.082 235.582H118.713V236.897H117.145C116.33 236.897 115.64 236.897 115.076 236.96C114.511 237.022 114.009 237.085 113.633 237.21C113.257 237.335 113.006 237.523 112.818 237.774C112.63 238.024 112.567 238.274 112.567 238.65C112.567 239.213 112.818 239.652 113.257 239.965C113.696 240.278 114.323 240.403 115.013 240.403C115.64 240.403 116.204 240.278 116.706 239.965C117.208 239.652 117.647 239.339 117.96 238.838C118.274 238.4 118.462 237.899 118.462 237.335V234.894C118.462 234.08 118.211 233.454 117.709 233.141C117.208 232.765 116.518 232.577 115.577 232.577C114.95 232.577 114.323 232.64 113.696 232.828C113.069 233.016 112.442 233.266 111.752 233.704L111.125 232.264C111.564 232.014 112.065 231.763 112.567 231.576C113.069 231.388 113.633 231.263 114.135 231.137C114.699 231.075 115.201 231.012 115.765 231.012C116.643 231.012 117.459 231.137 118.148 231.45C118.838 231.763 119.34 232.202 119.779 232.765C120.155 233.391 120.343 234.142 120.343 235.082V241.718H118.65V239.464H118.587C118.399 239.902 118.086 240.278 117.709 240.653C117.333 241.029 116.894 241.342 116.393 241.592C115.891 241.905 115.326 242.031 114.637 242.031Z" fill="#F9C02F" stroke="#F9C02F" stroke-width="2" stroke-miterlimit="10"/>
<path d="M124.42 241.843V231.325H130.126C131.004 231.325 131.694 231.45 132.259 231.638C132.823 231.826 133.262 232.139 133.513 232.577C133.764 232.953 133.952 233.454 133.952 234.08C133.952 234.643 133.764 235.081 133.45 235.52C133.136 235.895 132.698 236.208 132.196 236.396V236.459C132.635 236.584 133.074 236.772 133.387 236.96C133.701 237.21 133.952 237.46 134.077 237.836C134.265 238.149 134.328 238.525 134.328 238.963C134.328 239.839 133.952 240.528 133.262 241.092C132.572 241.592 131.569 241.905 130.314 241.905H124.42V241.843ZM126.301 235.833H130.001C130.691 235.833 131.192 235.708 131.569 235.395C131.945 235.081 132.133 234.706 132.133 234.205C132.133 233.704 131.945 233.266 131.569 233.016C131.192 232.765 130.691 232.64 130.001 232.64H126.301V235.833ZM126.301 240.466H130.189C130.879 240.466 131.443 240.34 131.882 240.09C132.259 239.839 132.509 239.401 132.509 238.838C132.509 238.274 132.321 237.836 131.882 237.586C131.506 237.335 130.942 237.147 130.189 237.147H126.301V240.466Z" fill="#F9C02F" stroke="#F9C02F" stroke-width="2" stroke-miterlimit="10"/>
<path d="M142.355 242.031C141.289 242.031 140.348 241.78 139.533 241.342C138.718 240.904 138.153 240.278 137.714 239.464C137.275 238.65 137.087 237.711 137.087 236.584C137.087 235.52 137.275 234.581 137.714 233.767C138.153 232.953 138.718 232.327 139.533 231.889C140.348 231.451 141.226 231.2 142.292 231.2C143.358 231.2 144.299 231.451 145.114 231.889C145.867 232.327 146.494 232.953 146.933 233.767C147.372 234.581 147.56 235.52 147.56 236.584C147.56 237.711 147.372 238.65 146.933 239.464C146.494 240.278 145.93 240.904 145.114 241.342C144.362 241.78 143.421 242.031 142.355 242.031ZM142.355 240.341C143.421 240.341 144.236 239.965 144.801 239.276C145.365 238.588 145.679 237.649 145.679 236.522C145.679 235.395 145.365 234.456 144.801 233.767C144.236 233.078 143.421 232.765 142.355 232.765C141.289 232.765 140.474 233.078 139.909 233.767C139.282 234.456 139.031 235.332 139.031 236.522C139.031 237.649 139.345 238.588 139.909 239.276C140.474 240.028 141.289 240.341 142.355 240.341Z" fill="#F9C02F" stroke="#F9C02F" stroke-width="2" stroke-miterlimit="10"/>
<path d="M149.943 244.66V240.215H151.135C151.511 239.714 151.762 239.213 152.013 238.65C152.201 238.087 152.389 237.46 152.452 236.772C152.577 236.083 152.577 235.269 152.577 234.393V231.325H160.604V240.215H162.36V244.66H160.667V241.843H151.636V244.66H149.943ZM153.016 240.215H158.785V232.89H154.27V234.706C154.27 235.833 154.145 236.834 153.957 237.711C153.769 238.713 153.455 239.526 153.016 240.215Z" fill="#F9C02F" stroke="#F9C02F" stroke-width="2" stroke-miterlimit="10"/>
<path d="M175.467 242.031C174.84 242.031 174.213 241.968 173.648 241.843C173.021 241.718 172.457 241.53 171.892 241.279C171.328 241.029 170.826 240.653 170.387 240.278L171.14 238.775C171.829 239.339 172.519 239.777 173.272 240.027C174.024 240.278 174.777 240.403 175.467 240.403C176.094 240.403 176.658 240.34 177.16 240.153C177.662 239.965 178.038 239.714 178.351 239.276C178.665 238.9 178.79 238.4 178.79 237.774C178.79 236.897 178.477 236.271 177.912 235.833C177.348 235.395 176.47 235.144 175.341 235.144H173.084V233.516H175.028C175.655 233.516 176.219 233.391 176.721 233.203C177.223 233.016 177.599 232.703 177.912 232.264C178.226 231.826 178.351 231.325 178.351 230.762C178.351 230.011 178.101 229.385 177.536 229.009C176.972 228.633 176.345 228.445 175.467 228.445C174.714 228.445 174.024 228.571 173.272 228.821C172.519 229.072 171.892 229.51 171.265 230.136L170.575 228.633C171.14 228.007 171.892 227.506 172.77 227.193C173.648 226.88 174.589 226.755 175.529 226.755C176.47 226.755 177.285 226.88 177.975 227.193C178.665 227.506 179.229 227.945 179.606 228.508C179.982 229.072 180.17 229.76 180.17 230.574C180.17 231.388 179.919 232.139 179.48 232.765C178.979 233.391 178.351 233.892 177.536 234.143V234.205C178.101 234.33 178.602 234.518 179.041 234.831C179.48 235.144 179.857 235.582 180.107 236.021C180.358 236.521 180.484 237.085 180.484 237.774C180.484 238.713 180.296 239.464 179.857 240.09C179.418 240.716 178.853 241.217 178.038 241.53C177.411 241.843 176.47 242.031 175.467 242.031Z" fill="#F9C02F" stroke="#F9C02F" stroke-width="2" stroke-miterlimit="10"/>
<path d="M184.434 241.843L191.772 227.694L191.897 228.633H183.431V226.943H193.465V228.383L186.567 241.843H184.434Z" fill="#F9C02F" stroke="#F9C02F" stroke-width="2" stroke-miterlimit="10"/>
</svg>
