<?xml version="1.0" encoding="utf-8"?>
<!-- Generator: Adobe Illustrator 26.0.3, SVG Export Plug-In . SVG Version: 6.00 Build 0)  -->
<svg  version="1.1" id="Слой_1" xmlns="http://www.w3.org/2000/svg" xmlns:xlink="http://www.w3.org/1999/xlink" x="0px" y="0px"
	 viewBox="0 0 28.3 28.3" style="enable-background:new 0 0 28.3 28.3;" xml:space="preserve">

<g>
	<defs>
		<rect id="SVGID_1_" x="-1.6" width="27.7" height="27.7"/>
	</defs>

	<g style="clip-path:url(#SVGID_00000121998078955992199280000012632344152154565035_);">
		<path class="cart_svg" d="M2.1,1C2.1,1,2.1,1,2.1,1c-0.6,0.1-1,0.5-1,1.1c0,0.6,0.5,1.1,1.1,1.1c0.6,0,1.1-0.5,1.1-1.1L3.2,2.2
			c0.7,0,1,0.1,1.3,0.4C4.8,2.8,5,3.2,5.2,3.8l4.4,17.9c0.2,0.6,0.3,1.3,0.8,1.8c0.2,0.2,0.4,0.4,0.7,0.5c-0.3,0.4-0.5,0.9-0.5,1.4
			c0,1.2,1,2.2,2.2,2.2c1.2,0,2.2-1,2.2-2.2c0-0.4-0.1-0.8-0.3-1.1h3.4c-0.2,0.3-0.3,0.7-0.3,1.1c0,1.2,1,2.2,2.2,2.2s2.2-1,2.2-2.2
			c0-0.6-0.2-1.1-0.6-1.5c0.1-0.2,0-0.4-0.1-0.5c-0.1-0.1-0.3-0.2-0.5-0.2h-8.5c-0.9,0-1.2-0.2-1.4-0.5c-0.2-0.3-0.4-0.7-0.5-1.4v0
			l-0.4-1.5h10.2c0.2,0,0.4-0.1,0.5-0.4l4-10.5c0.1-0.2,0-0.4-0.1-0.5c-0.1-0.1-0.3-0.2-0.5-0.2h-17L6.2,3.6c0,0,0,0,0,0
			C6,2.8,5.8,2.2,5.3,1.8C4.8,1.3,4.1,1.1,3.2,1.1L2.2,1C2.2,1,2.2,1,2.1,1C2.2,1,2.1,1,2.1,1z M7.7,9.4h15.9l-3.6,9.4H10L7.7,9.4z
			 M12.8,24.4c0.6,0,1.1,0.5,1.1,1.1c0,0.6-0.5,1.1-1.1,1.1c-0.6,0-1.1-0.5-1.1-1.1C11.7,24.9,12.2,24.4,12.8,24.4z M20,24.4
			c0.6,0,1.1,0.5,1.1,1.1c0,0.6-0.5,1.1-1.1,1.1s-1.1-0.5-1.1-1.1C18.9,24.9,19.4,24.4,20,24.4z"/>
	</g>
</g>
</svg>
