<?xml version="1.0" encoding="utf-8"?>
<!-- Generator: Adobe Illustrator 26.0.3, SVG Export Plug-In . SVG Version: 6.00 Build 0)  -->
<svg version="1.1" id="Слой_1" xmlns="http://www.w3.org/2000/svg" xmlns:xlink="http://www.w3.org/1999/xlink" x="0px" y="0px"
	 viewBox="0 0 29 29" style="enable-background:new 0 0 29 29;" xml:space="preserve">

<path class="user_svg" d="M14.1,1.5c-3,0.1-4.9,1.3-5.7,3.1c-0.8,1.8-0.6,4,0,6.4c-0.3,0.4-0.5,0.8-0.5,1.6c0.1,0.8,0.3,1.3,0.6,1.7
	c0.2,0.2,0.4,0.2,0.6,0.3c0.1,0.7,0.3,1.3,0.6,1.9c0.2,0.3,0.3,0.6,0.5,0.9c0.1,0.1,0.2,0.2,0.3,0.3c0,0.8,0,1.4-0.1,2.3
	c-0.2,0.5-0.7,0.9-1.5,1.3C8.1,21.6,7.1,22,6,22.5c-1.1,0.5-2.2,1-3,1.9c-0.9,0.9-1.5,2.1-1.6,3.7l0,0.7H27l0-0.7
	c-0.1-1.6-0.7-2.8-1.6-3.7c-0.9-0.9-2-1.4-3-1.9c-1.1-0.5-2.1-0.8-2.9-1.2c-0.8-0.4-1.3-0.8-1.5-1.3c-0.1-0.8-0.1-1.5-0.1-2.3
	c0.1-0.1,0.2-0.2,0.3-0.3c0.2-0.2,0.3-0.5,0.5-0.9c0.3-0.6,0.5-1.2,0.6-1.9c0.2-0.1,0.4-0.1,0.6-0.3c0.3-0.4,0.5-1,0.6-1.7
	c0.1-0.7-0.1-1.2-0.4-1.5c0.3-1,0.7-2.7,0.6-4.3c-0.1-0.9-0.3-1.8-0.9-2.6c-0.5-0.7-1.3-1.2-2.4-1.4C16.8,1.8,15.5,1.5,14.1,1.5
	L14.1,1.5z M14.1,2.7C14.2,2.7,14.2,2.7,14.1,2.7c1.3,0,2.1,0.4,2.4,0.8l0.2,0.3l0.3,0c0.9,0.1,1.4,0.5,1.8,1c0.4,0.5,0.6,1.2,0.6,2
	c0.1,1.5-0.3,3.3-0.6,4.2l-0.2,0.5l0.4,0.3c0,0,0.2,0.2,0.2,0.7c-0.1,0.6-0.2,1-0.3,1.1s-0.2,0.1-0.2,0.1l-0.5,0l-0.1,0.5
	c-0.1,0.6-0.3,1.2-0.5,1.8c-0.1,0.3-0.3,0.5-0.4,0.7s-0.2,0.3-0.2,0.2L16.7,17v0.4c0,0.9,0,1.7,0.1,2.8v0.1l0,0.1
	c0.4,1,1.2,1.6,2.1,2.1c0.9,0.5,2,0.8,3,1.2c1,0.4,1.9,0.9,2.6,1.6c0.5,0.5,0.9,1.3,1.1,2.2H2.8c0.2-0.9,0.5-1.6,1.1-2.2
	c0.7-0.7,1.6-1.2,2.6-1.6c1-0.4,2.1-0.8,3-1.2c0.9-0.5,1.8-1.1,2.2-2.1l0-0.2c0.1-1.1,0.1-1.8,0.1-2.8V17l-0.3-0.2
	c0.1,0-0.1-0.1-0.2-0.2S11,16.2,10.8,16c-0.3-0.5-0.5-1.2-0.5-1.8l-0.1-0.5l-0.5,0c0,0-0.1,0-0.2-0.1c-0.1-0.1-0.3-0.5-0.3-1.1
	c-0.1-0.5,0.2-0.7,0.2-0.7l0.4-0.3L9.7,11C9.1,8.7,9,6.6,9.6,5.1C10.2,3.7,11.5,2.8,14.1,2.7z"/>
</svg>
