<?xml version="1.0" encoding="utf-8"?>
<!-- Generator: Adobe Illustrator 26.0.3, SVG Export Plug-In . SVG Version: 6.00 Build 0)  -->
<svg version="1.1" id="Слой_1" xmlns="http://www.w3.org/2000/svg" xmlns:xlink="http://www.w3.org/1999/xlink" x="0px" y="0px"
	 viewBox="0 0 443.3 416.9" style="enable-background:new 0 0 443.3 416.9;" xml:space="preserve">
<style type="text/css">
	.st0{fill-rule:evenodd;clip-rule:evenodd;fill:#FFFFFF;}
	.st1{fill-rule:evenodd;clip-rule:evenodd;fill:#4C96A6;}
	.st2{fill-rule:evenodd;clip-rule:evenodd;fill:#E09A45;}
	.st3{fill:#E09A45;stroke:#E09A45;stroke-width:2;stroke-miterlimit:10;}
</style>
<g id="Badge_17">
	<path class="st0" d="M109.2,172.3c-0.2-0.1-0.3-0.1-0.5-0.2c-6.2-2.4-10.5-6.6-13.7-12.4c-2.1-3.1-2.6-7.1-0.7-10.4
		c3.6-6.4,11.3-8.2,17.3-11.3c34.7-17.9,91.4-39.5,130.9-29c7-15.2,32.8-9.3,39.9-24.2l0.9-1.9l1.9,0.9c5,2.4,9.2,6,11.7,11
		c1.1,2.2,1.4,3.7,1.8,5.6c7.6,1.2,12,20.1,13.2,25.6c2.5,11.3,5.9,22.4,9,33.5c3.3,11.9,5.9,23.6,6.8,35.9c3.2-2.5,6.2-5.7,8.7-8.6
		l4.3-5l3.8,5.4c3.5,5,5.9,8.8,5.1,14.9c3.2,3,5,6,6.7,10.2c3.1,7.4,5.2,10.7,12.3,15.1l3.1,1.9l-3.2,1.8
		c-16.8,9.4-30.8,10.9-46.3-0.2c-6,17.6-17.3,29.8-33.9,38.2c-12.4,6.2-26,10.1-39.8,11.2c-1.5,0.2-6.1,4.4-7.3,5.5
		c-4.8,4.4-9.3,9.1-14.3,13.3c-7.3,6.1-16.1,11.6-26,11.7c-1.7,0-3.5-0.5-4.7-1.8c-2.7-3-0.9-8.1,0.6-11.2c1.9-3.8,3.9-7.5,5.8-11.3
		c2.2-4.6,3.6-9.4,5-14.2c1-3.6,1.9-7.1,2.7-10.7c0.6-2.4,1.1-4.8,1.7-7.1c0.1-0.4,0.3-0.8,0.5-1.1c-0.5-1.8,0.4-6.6,0.6-8.6
		c0.4-4.3,0.5-8.7,0.1-13c0-0.3-0.1-0.7-0.1-1l-0.9-5.1c-2.7-3.5-5.5-6.8-4.5-11.6c1.4-6.7,5-8.4,11.3-7.5c0.8,0.1,1.6,0.3,2.4,0.6
		c2.9,1.1,5.5,2.8,8,4.7c2.4,2,4.6,4.3,6.5,6.8c3.3,4.2,5.9,8.9,8.7,13.5c0.8-0.7,1.8-1.4,2.1-2.1c1-2.3,2.3-4.3,3.8-6.2
		c-1.2-1.5-1.9-3.4-2.1-5.3l-0.5-4.8l4.7-0.8c4.2-0.7,16.7-3.9,13.8-10.4c-0.7-1.6-2-2.5-3.5-3.3c-15.8-6.4-42.6-3.6-59.7-0.6
		c-0.7,3.4-2.2,7.4-3.4,10.3c-1,2.3-2.1,4.7-3.6,6.7c-0.2,1-0.3,2.2-0.4,3.2c-0.3,2.3-0.7,4.5-1.1,6.7c-0.5,2.7-1.2,6-2.4,8.5
		l-1.2,2.6l-5.2-4.5c-5.7-5-10.8-11.3-13.4-18.5c-0.9-2.5-1.5-5.3-1.6-8c-1.6,0.4-3.2,0.9-4.9,1.4c-1.6,0.5-3.1,1.1-4.7,1.5
		c-4.2,1.1-9,0.9-13.3,0.8c-14.4-0.3-31.5-3.3-43.2-12.2c-5.4-4.1-12.8-12.8-8.5-20c2.1-3.5,6.2-4.6,10.1-4.5
		C107.6,172.4,108.4,172.3,109.2,172.3z"/>
	<path class="st1" d="M244.9,135.7c4.3,1.1,1.6,2.7-0.9,2C241.3,137,240.6,134.6,244.9,135.7L244.9,135.7z M202.2,180.5
		c-0.9,0.5-1.8,1-2.7,1.4c0.8-2.3-0.3-4-0.1-5.3c-1.6,4.8-13.2,12.8-19.1,15.5c-1.1,4-12.9,8.5-20.8,11.1c6.1-1.7,12.3-3.3,18.6-4.8
		c-4.1,6.6-0.7,18.8,11.6,29.6c0.5-1.1,0.9-2.2,1.3-3.2c-3.4-2.6-6.6-6.1-9.8-10.4c3.6,3.7,7.1,6.5,10.4,8.4
		c0.2-0.6,0.2-1.3,0.3-1.9c-3.3-1.5-5.8-4-7.6-7.3c2.2,2.9,4.7,4.6,7.5,4.9c-0.3-2.2-0.7-4,0.5-5.7c4.1-5.6,6.9-16.7,6.7-17.5
		c-0.9-0.3-1.8-0.6-2.7-0.8c27.4-5.4,54.1-6.4,69.3-0.2c3.1,1.6,4.9,3.4,6.1,5.9c3.2,7.1-2,14.9-17.6,17.6c0,0,0.5,4.5,5,4.8
		c-1.9,1.8-5,4.5-7.1,9.3c-1.5,3.4-4.2,3.6-3.3,4.2c13.5,8.3,35-3.3,35-21.1c2.8,16.6-8.4,32-29.6,30.6c-3,2.4-5.7,5.8-7.3,9.3
		c0.6-3.3,1.8-6.9,3.9-10.3c-9.4-1.3-13.6-26.3-30.4-33c-0.4-0.1-0.8-0.3-1.3-0.3c5.9,11,13.6,21.6,24.2,31.5
		c-12.4-10.7-21.7-21-28.1-30.7c-0.8,0.6-1.4,1.4-1.6,2.6c-0.2,0.8-0.1,1.6,0.1,2.4c5,8.7,16.6,19.6,26.4,26.5
		c-8.1-5.1-15.4-9.4-21.2-14c0.1,0.4,0.1,0.9,0.2,1.3c1,9.9-0.9,20.4-0.8,20.7c0.2,0.7,0.8,1.7,1.6,2.7c-1.4,0.8-2.6,1.7-3.1,2.5
		c0,0,0,0,0,0c8,2,17.3,3,26.5,0.3c-10.4,3.7-20.2,3.8-27.7,2.8c-0.3,1.3-0.7,2.7-0.9,4.4c9.1,0.2,19.8-0.7,29.9-5.9
		c-11.2,6.3-22.2,8.7-30.6,9.4c-1.5,8.2-3.4,19.1-8.9,26.8c6.7,0.2,15.9-3.5,22.5-8.5c-6.4,6.3-16.4,10.8-24.2,10.7
		c-0.5,0.5-1,1.1-1.5,1.6c7.1,0.8,19.3-3.7,28.7-13c-9.6,10.5-21.9,15.8-30,15.2c-1.7,3.7-0.5,4.6,1.2,4.6
		c20.6-0.2,38.1-29.8,47.3-30.5c0,0,0-0.1,0-0.2c11.4-0.4,24.9-3.9,37.9-10.4c13.1-6.6,25.5-16.9,31.7-36.3
		c-7.2,18.5-19.5,28.1-32.6,34c-12.9,5.8-26.3,8.6-38.3,8.6c-0.4-1.7-0.8-3.7-1.1-6c1.8,2.5,5.8,3.8,13.1,2.8
		c13.3-1.9,25.3-5.7,35.6-12.6c10.4-6.8,19-17.2,24.7-33.2c11.6,11.2,26.8,16,42.3,7.4c-8.3-5.1-8.7-13.2-12.2-19.1
		c-5.2,2.2-11.8,2.5-17.8,0.9c6.8,0.8,13.1-0.8,16.4-2.9c-0.6-0.8-1.3-1.4-2.1-2.1c-4.2,2.7-9,3.7-15.3,2c5.4,0.8,10.3-0.9,13.2-3.4
		c1.9-6.6-0.2-9.4-3.6-14.2c-18.4,21.5-26.9,14.2-34,5.2c4.1,3.1,8.7,7.4,12,6.4c-2.3-19.7-9.8-35.6-21-47.4
		c-11.2-11.9-25.1-20.1-40-25.4c3.4,3.6-4.7,6.7-12.5,4.7c-8.6-2.2-12.4-8.6-6.2-9.7c-13.9-2.5-28.5-2.5-43.3-0.2
		c31.2-6.3,57.8-4.4,80.2,7c22.9,11.6,40,33.1,47.2,67.2c-0.8-12.4-2.9-23.6-7.3-33c-4.4-9.4-10.5-17.2-17.5-23.9
		c7.9,5.6,14.8,12.3,18.7,20.5c-11.1-30.3-9.7-44.2-16-52.2c-5.6,1.2-11.5,3.9-17.6,8.3c4.7-4.1,10-7.5,15.9-10.2
		c-0.7-0.6-1.4-1.2-2.2-1.7c-5.7,1.8-11.3,5.4-16.9,10.9c4-4.7,8.8-8.8,14.3-12.3c0,0-0.1,0-0.1-0.1c-0.3-7.1-3.1-12-8.4-14.6
		c-6.5,13.5-39,9.4-39.6,25.7c-11.1-3.6-9.1-2-22.3-2.5c-12.8-0.5-26.7,0.6-41.5,3.2c-9.2,1.7-19.4,4.8-30.8,9.2
		c-11.4,4.4-23.9,10.1-37.6,17.2c-2.5,1.3-12.6,4.7-15.2,9.3c-0.8,1.5-0.7,3.4,0.6,5.1c1.8,3.6,6.5,7.5,14.1,11.7
		c-5.4-3.3-8.7-6.3-10.1-8.9c0,0-0.1-0.1-0.1-0.1c-0.6-1.3-0.8-2.5-0.4-3.6c1.5-4,10.6-4.5,15.4-5.8c4.2-4.5,9.8-4.1,17.2-0.7
		c-13.5-5.3,8.2-22.1,16.6-10.4c-0.5-2.1-2-3.9-4.4-5.2c0,0,2.4,0.5,5.1-0.2c-0.2,0.6-0.2,1.2,1.2,1.5c0.9,0.2,2.3-0.3,1.2-0.9
		c0-0.2,0.5-0.6,0.9-0.9c18.3,6.2,23.2,14.4,18.1,28.1c6.3-12.6,1-23.2-15.2-32.1c0,0,1.9,0,4.3-0.3c-0.4,0.4-0.8,0.6-0.4,1.1
		c1.3,1.6,4.1-0.5,3.9-1.1c-0.1-0.3-0.2-0.5-0.3-0.7c1.5-0.4,3.1-1,4.3-1.9c0.6,0.2,1.3,0.4,1.8,0.6c-2.8,1.2-0.2,2.9,1.5,1.2
		c0.1-0.1,0.1-0.4-0.1-0.7c33.8,10.5,27.9,23.2-7.7,42.5c11.1,8,2.7,14.2-24.9,18.1c-4.9,0.7-41.3,5.3-26.9-8.8
		c-2.8,0.2-6,0.3-6.9-0.6c4.3,0.8,10.6-0.5,17.3-3.3c0,0,0,0,0,0c0.7-0.3,1.5-0.7,2.2-1l0,0l0,0c1.6-0.8,3.3-1.7,4.8-2.6
		c-2.3-2.9-5.1-4.8-8.7-7.1c4.1,1.8,6.9,3.2,9.9,6.3c0.4-0.2,0.8-0.5,1.2-0.7c-3.3-3.4-8-5.9-13.2-8.1c5.7,1.3,10,3.1,14.8,7.1
		c0.4-0.2,0.7-0.5,1-0.7c-4.6-4.6-9.9-7.2-17.2-8.4c6.5,0,12.7,2.5,18.7,7.5c0.6-0.5,1.2-1,1.8-1.5c-7.5-10.3-40.8-15.2-30.1-3.1
		c3.8,4.3,9.2,5,13.9,11.2c-3.1,2.2-11.6,3-17.3,3.2c-2.4-0.1-5.5,2.3-6.3,4.7c5.1,15.4,21.6,23.4,57.5,21.6
		c-16.5,0.3-27.2-2.6-36.4-7.4c3.8,0.2,8,0,12.4-0.4c14.2,5.3,17.3,8,29.6,3.4c-13.5,4.1-16.5,1-24.1-4c2.2-0.3,4.3-0.6,6.4-1.1
		c12.9,2.8,20.2,3.5,32.1-1.6c-12.9,4.6-19.3,4.3-27.3,0.6c2-0.5,4-1,5.9-1.5c14.9-1.1,26.7-5.1,38-14.3c-7.8,5.4-21,11.9-31.3,12.1
		c6.2-2.3,11.4-5.1,14.5-8.3c-5.6,3.7-13.8,6.9-24.2,9.1c-10.3,2.2-22.9,3.4-37,3.1c24.5-1.9,41.7-4.8,51.2-8.4
		c9.5-3.6,11.2-7.9,5-12.8c44.6-22.8,37.8-39.8,0.6-47.9c32.7,5.4,62,25.7,8.7,48.1c17.9-7,28.8-14.5,32.4-22.5
		c0.3,0.4,0.9,0.9,1.6,1.2c2.6,1.1,2.8-1.9-0.3-2.5c-0.3-0.1-0.6,0-0.8-0.1c0.5-1.5,0.7-2.9,0.7-4.4c0.2,0.1,0.3,0.1,0.5,0.1
		c0.7,0.2,4-0.1,4.2-1.6c1.4,0,2.7,0.1,4.1,0.2c0.5,1.2,2.1,1.9,4.2,1c0.5-0.2,0.7-0.4,0.8-0.6c2.1,0.2,4.2,0.5,6.3,0.9
		c-0.1,0.9,0.7,1.6,2.5,1.3c0.1,0,2.1,0.4,2.5-0.4c2.8,0.6,5.5,1.4,8.1,2.2c-0.9,1.6,2.1,3.4,3.5,3.2c1.1-0.2-0.4-0.5,0.6-1.2
		c0.2-0.1,0.3-0.3,0.4-0.5c1.3,0.5,2.6,1,3.9,1.6c-0.7,0.8,1.6,1.4,2.2,1c4.3,2,8.3,4.2,12.1,6.7c-1,1.4,1.1,4.3,2,1.3
		c1.2,0.8,2.4,1.7,3.6,2.6c-0.7,1-0.6,2,0.6,2.9c1.5,1,2.5,0.5,2-0.8c2.7,2.3,5.4,4.7,7.7,7.3c-5.2,1.2,4.2,8.3,1.5,1.7
		c21.6,25.3,29,70.4-11.9,83.8c18.5-8.7,21.8-23.6,17.4-37.3c-4.4-13.8-16.8-26.1-27.8-29.1c-8-3.2-20.6-4.9-41.7-3.3l0,0
		c-12.9,0.9-24.9,2.7-32.4,1.3c9.3-0.8,16.3-2,21-3.4c-6.8,1.2-12.1,1.3-15.8,0.4c-1.3,0.7-2.5,1.4-3.8,2.1c2.3-1.6,3.8-3,4.6-4.3
		c8.5-0.8,14.9-1.9,19.4-3.2C211.2,181.3,205.9,181.4,202.2,180.5L202.2,180.5z M225.3,183.2c22-2.3,40,0,52.7,7.3
		c12.5,7.2,19.1,19.4,20.1,35.2c-2.7-14.2-10-25.6-22.5-32.8C263.1,185.6,245.9,182.5,225.3,183.2L225.3,183.2z M227,179.2
		c22.1-2.1,40.1,0.2,53,7.4c12.7,7.2,19.4,19.3,20.6,35.2c-2.8-14.2-10.3-25.6-22.8-32.8C264.9,181.8,247.6,178.7,227,179.2
		L227,179.2z M210,176.7c-9.4-1.1,11-11.7-10.6-2.4c9.9-10.2,23.2-16.4,35.3-19.4c12.2-3,23.1-3.1,27.8-1.4c0,0-0.4,1.6-0.8,2.4
		c-9.5-1-19.6-1.6-39.5,5.7c19.5-6.4,29.2-5.4,37.7-4c-0.7,0.7-1.8,1.5-3,2.2c-6.4-0.8-14.1-2.2-27.2,1.8
		c11.3-3.1,18.9-1.9,25.2-0.8c-3.5,1.6-5.2,4.7-9.1,7.4c-4.7,3.3-11.7,6.3-17.4,8.1C223.9,177.8,213.7,176.7,210,176.7L210,176.7z
		 M155.2,140.7c0.2,0,1.5-0.2,1.6,0.3C158,144.5,152.1,141.1,155.2,140.7L155.2,140.7z M172.4,138.7c0.1-0.1,0.1-0.2,0.2-0.3
		C174.4,137.3,173.6,140.4,172.4,138.7L172.4,138.7z M185.3,143.6c-0.1-0.2,0-0.4,0.2-0.4C188.3,142,186,145.4,185.3,143.6
		L185.3,143.6z M178.2,142.1c0.3-0.3,0-0.1,0.4-0.1C180.9,142.1,176.5,143.8,178.2,142.1L178.2,142.1z M184.7,137.1
		c0.2,0,1.3-0.1,1.3,0.3C185.6,139.7,182.4,137.4,184.7,137.1L184.7,137.1z M177.1,139.5c0.1-0.4-0.1-0.8,0.2-1
		c2.7-2,3.6,0.7,3.6,0.7C183.5,139.7,176.4,142.2,177.1,139.5L177.1,139.5z M174.4,134.5c0.5-1.1,2.3-2.5,3.3-1.7
		C179.9,134.9,173.2,137,174.4,134.5L174.4,134.5z M169.9,131.7c1.6-0.9,1.8-0.1,0.7,1.6c-1.1,1.6-0.7,0.5-1.9,1.1
		c-1.2,0.6-1.6-0.4-1.3-0.6C167.1,133.1,169.6,131.9,169.9,131.7L169.9,131.7z M166.7,142.7c2.5-0.8,2,1.4,1.3,1.8
		C164.4,146.7,163.4,143.6,166.7,142.7L166.7,142.7z M152.5,147.4c2.3-0.2,1.4,0.8,0,0.5C152.5,148,152.1,147.6,152.5,147.4
		L152.5,147.4z M160,145.2c0-0.1,0-0.1,0.1-0.2C162.2,143.6,161.4,147,160,145.2L160,145.2z M159,140.9c0-0.1-0.1-0.1-0.1-0.2
		c-1.2-0.9,1-2.2,1.8-2C164.4,139.7,160.3,142.5,159,140.9L159,140.9z M155.1,137.8c0-0.1,0.1-0.1,0.2-0.2
		C156.5,136.9,155.3,139.8,155.1,137.8L155.1,137.8z M138.3,146.6c-1.7-0.9-1.6-2.8,0.2-4.2c1.8-1.5,4.7-1.9,6.4-1.1
		c1.7,0.9,1.6,2.7-0.2,4.2C142.9,147,140,147.5,138.3,146.6L138.3,146.6z M135.1,144.9c0.2,1.1,1.1,2,2.5,2.5
		c-0.9-0.1-0.6,0.2-2.5-0.8c-1.9-1-2.9-5.2,0.5-7.9c3.4-2.7,8.8-3.7,11.9-2c3.2,1.6,1.4,6.5-0.4,7.9c-1.8,1.5-0.4,0.3-0.6,0.4
		c0.1-0.1,0.2-0.1,0.3-0.2c5-4,1.4-6.8-3.1-6.7C139.8,138.2,134.5,141.1,135.1,144.9L135.1,144.9z M142.3,143.5
		c-0.6-0.3-0.6-1,0.1-1.5c0.7-0.5,1.7-0.7,2.3-0.4c0.6,0.3,0.6,1-0.1,1.5C143.9,143.6,142.9,143.8,142.3,143.5L142.3,143.5z
		 M142.6,168.1c-0.1,6.1-15.8,9.7-20.5,11.6C131.3,175.3,138.3,172.1,142.6,168.1L142.6,168.1z M121.1,177.5
		c-9.2,9.2,6.3,11.9,42.4,2.3C124.3,193.6,103.7,186.8,121.1,177.5L121.1,177.5z M130.9,156.4c4.8,0.7,10.7,3.5,14.8,6.3
		c-2.8-6.2-14.5-8.2-19.2-10c7.7,1.7,17.7,4,20.1,8.6c1,1.9,1.2,4.9-1.3,10.1c0.1-2.4-4.3-7.8-10.6-11.7c3.5,1.9,7.7,4.4,11,7
		C145.7,161.4,133.9,157,130.9,156.4L130.9,156.4z M204.2,164.7c-6.9,7.9-17.3,16.2-26.1,18c10.2-2.8,18.4-11.8,19.7-14.7
		C201.4,166.2,201.5,166.2,204.2,164.7L204.2,164.7z M267,159.7c-0.1,0-0.2,0.1-0.3,0.1c-1.2-1.7,1.5-1.7,1.8-1.5
		C272.4,162,267.9,162.1,267,159.7L267,159.7z M263,157.4c0,0-0.3-1.2-0.3-1.3c2-0.9,2.6,1.5,2.5,1.6c-0.8,0.3-0.3,0.2-0.7,0.4
		C263.6,158.6,263.2,157.8,263,157.4L263,157.4z M278.4,171.8c0-0.1-0.2-0.6,0-0.6C279.5,170.7,278.9,173.5,278.4,171.8L278.4,171.8
		z M293.4,180.4c0.2,0.1,1.4,3.6,1.2,4.1C293.3,189.4,291.2,178.7,293.4,180.4L293.4,180.4z M287.5,179.3c-0.5,0-0.3-0.5-0.3-0.7
		c-0.3-3.7,2-0.1,2-0.1C290,180.4,287.5,179.3,287.5,179.3L287.5,179.3z M281.6,173.6c0-0.2,0.2-0.5,0.4-0.4
		C284.2,174.5,281.8,175.2,281.6,173.6L281.6,173.6z M280.1,167.5c1.1-0.3,2.5-0.1,2.8,0.6C286.7,175.1,277.2,168.4,280.1,167.5
		L280.1,167.5z M274,168.3c0.1-0.1,0.3-0.1,0.4-0.2C275.6,168.3,274.1,170.9,274,168.3L274,168.3z M268.1,166.6
		c0.1-0.1,0.1-0.2,0.2-0.4C269.9,164.8,270.8,169.6,268.1,166.6L268.1,166.6z M272,163.7c0.3-1.6,2.3-1.3,2.6-0.7
		C277.3,167.8,271.7,165.3,272,163.7L272,163.7z M260.1,161.6C261.7,158.8,264.5,163.8,260.1,161.6L260.1,161.6z M265.1,162.3
		c0-0.2,0.4-0.4,0.6-0.2C267.2,164.3,264.8,163.7,265.1,162.3L265.1,162.3z M241,151.3c0-0.2,0.1-0.2,0.2-0.2
		C243,151,240.8,152.8,241,151.3L241,151.3z M242.4,148.7c-0.2-0.5,1-0.8,1.3-0.7C247.8,150.1,243,150.6,242.4,148.7L242.4,148.7z
		 M235,149.3c0-0.1,1.1-1.3,2.6-0.9C242.6,149.8,234.2,151.8,235,149.3L235,149.3z M212,157.7c0-0.2,0.7-0.5,0.9-0.4
		C215.1,158.6,211.9,158.8,212,157.7L212,157.7z M217.4,154.9c0-1-0.7-1.1,1.6-0.9C222.8,154.2,217.4,156.9,217.4,154.9L217.4,154.9
		z M223.1,153.1c-0.1-0.1-0.1-0.3,0-0.4C225.6,151.4,225.1,154.7,223.1,153.1L223.1,153.1z M229.7,150.9c0.1-0.1,0.1-0.1,0.1-0.2
		C231.7,149.7,231.2,152.5,229.7,150.9L229.7,150.9z M229.2,146.2c-0.1-0.9,1.1-1.3,2.1-1.3c1.5,0,1.2,1.1,1.2,1.1
		c0.3,1.1-1.3,1.2-1.6,1.3C230.2,147.2,229.2,146.9,229.2,146.2L229.2,146.2z M220.5,148c-0.1-0.2-0.5-1.4,1.6-1.7
		c3.6-0.5,5.6,2.7,2.6,2.9C222.6,149.4,221.5,149.7,220.5,148L220.5,148z M108.1,146.4c-1.1,1-1.7,1.8-1.9,2.4
		c0.1,0-0.2,0.1,0.2-0.1c0.4-0.2,1.5-0.2,1.6,0.2c0.1,0.4-0.1,0.7-0.4,1.1c1.1,0.1,2.7-0.2,5-0.7
		C102.6,152.6,101.1,151.6,108.1,146.4z"/>
	<path class="st2" d="M261.4,78.1c-13-5.6-26-8.4-39-8.4c-13,0-26.1,2.8-39.1,8.4c-1,0.4-1.5,1.6-1.1,2.6c0.4,1,1.6,1.5,2.6,1.1
		c12.5-5.4,25.1-8.1,37.6-8.1c12.5,0,25,2.7,37.5,8.1c1,0.4,2.2-0.1,2.6-1.1C262.9,79.8,262.4,78.6,261.4,78.1L261.4,78.1z
		 M273.2,53.7c1.3,0,2.4,1.2,2.3,2.5c0,1.4-1.2,2.4-2.5,2.4c-0.5,0-0.9-0.2-1.3-0.4c-2.3,3.4-7.1,10.6-11.1,17.6
		c-13.5-5.6-27.1-8.4-38.3-8.3c-11.2-0.1-24.8,2.7-38.3,8.3c-3.9-7-8.6-14.2-10.9-17.6c-0.4,0.3-0.9,0.5-1.5,0.4
		c-1.3,0-2.4-1.2-2.3-2.5c0-1.4,1.2-2.4,2.5-2.4c1.3,0,2.4,1.2,2.3,2.5c0,0.2,0,0.4-0.1,0.6c7.9,2.7,18.1,9.1,18.1,9.1
		c2.5-5.6,4.2-8.5,5.7-11.2c-0.6-0.3-1-1-1-1.8c0-1.1,0.9-2,2-1.9c1.1,0,1.9,1,1.9,2c0,0.3-0.1,0.6-0.2,0.9l10.9,5.8l10-18.5
		c-0.8-0.4-1.3-1.3-1.2-2.2c0-1.4,1.2-2.4,2.5-2.4c1.3,0,2.4,1.2,2.3,2.5c0,0.9-0.5,1.7-1.3,2.1l9.8,18.5l10.9-5.8
		c-0.1-0.3-0.2-0.6-0.2-1c0-1.1,0.9-2,2-1.9c1.1,0,1.9,0.9,1.9,2c0,0.7-0.4,1.4-1,1.7c1.4,2.7,3.2,5.6,5.6,11.2
		c0,0,10.2-6.4,18.2-9.1c-0.1-0.2-0.1-0.5-0.1-0.8C270.7,54.7,271.9,53.7,273.2,53.7L273.2,53.7z M257.3,70c0.8-1.1,1.6-2.3,2.4-3.4
		c0.4-0.2,0.8-0.4,1.2-0.6c-1.2,2-2.5,4-3.6,6c-1.4-0.5-2.8-1-4.2-1.5c0.7-0.4,1.4-0.9,2.1-1.3C255.8,69.4,256.6,69.7,257.3,70
		L257.3,70z M243.7,60.6l-0.4-0.7l-10.7,5.7c5.1,0.6,10.2,1.7,15.1,3.2l0,0c-0.3-0.7-0.6-1.4-1-2.1c-3.5-0.9-6.7-1.2-10.5-1.8
		L243.7,60.6L243.7,60.6z M224.4,53.5l-2.2-4.2l-8.7,16.1c2.9-0.3,5.8-0.5,8.6-0.4c2.9,0,5.8,0.1,8.7,0.4l-0.9-1.8
		c-1.3-0.1-2.7-0.2-4-0.2c-2.5-0.1-5.1,0-7.8,0.1L224.4,53.5L224.4,53.5z M204.9,62l-3.9-2.1c-0.4,0.7-0.8,1.4-1.2,2.1
		c-1.2,2.2-2.3,4.4-3.3,6.7l0,0c5-1.4,10.1-2.5,15.2-3.2l-2-1c-2.3,0.4-4.7,0.8-7,1.4l0,0C203.4,64.6,204.1,63.3,204.9,62L204.9,62z
		 M191.2,70.4c-1.4,0.5-2.8,1-4.2,1.5c-1.1-2-2.3-4-3.6-6C186.1,67.4,188.7,68.9,191.2,70.4z"/>
</g>
<g>
	<path class="st3" d="M79.9,345.7v-23.8h9.9c1.7,0,3.1,0.3,4.4,0.9c1.2,0.6,2.1,1.4,2.8,2.5s1,2.4,1,3.9c0,1.5-0.3,2.8-1,3.9
		c-0.7,1.1-1.6,1.9-2.8,2.5c-1.2,0.6-2.7,0.9-4.3,0.9H83v9.4H79.9z M83,333.7h6.4c1.8,0,3.2-0.4,4.1-1.1s1.4-1.9,1.4-3.5
		c0-1.6-0.5-2.7-1.4-3.5c-0.9-0.7-2.3-1.1-4.1-1.1H83V333.7z"/>
	<path class="st3" d="M102.9,345.7v-16.8h3.1v5.7h5.5c2.3,0,4,0.5,5.1,1.4c1.2,1,1.7,2.3,1.7,4c0,1.1-0.3,2.1-0.8,2.9
		c-0.5,0.8-1.3,1.5-2.3,1.9c-1,0.5-2.3,0.7-3.7,0.7H102.9z M105.9,343.4h5.1c1.3,0,2.4-0.3,3.1-0.8c0.7-0.5,1.1-1.3,1.1-2.5
		c0-1.2-0.4-2-1.1-2.5c-0.7-0.5-1.8-0.7-3.1-0.7h-5.1V343.4z M121.5,345.7v-16.8h3.1v16.8H121.5z"/>
	<path class="st3" d="M138.7,346c-1.7,0-3.2-0.4-4.5-1.1c-1.3-0.7-2.3-1.8-3-3.2c-0.7-1.4-1-3.1-1-5.1V334c0-0.9,0.1-1.9,0.2-2.8
		c0.1-0.9,0.3-1.8,0.7-2.7c0.3-0.8,0.8-1.6,1.4-2.4c0.6-0.7,1.4-1.4,2.5-2c1-0.6,2.3-1.1,3.8-1.5l6.1-1.6l0.9,2.5l-6.9,1.7
		c-2,0.5-3.5,1.3-4.5,2.6c-1,1.2-1.5,2.7-1.5,4.5v0.7h0.1c0.3-0.8,0.8-1.5,1.4-2.1c0.6-0.6,1.3-1.1,2.1-1.4c0.8-0.3,1.8-0.5,2.8-0.5
		c1.1,0,2.2,0.2,3.1,0.6c0.9,0.4,1.7,0.9,2.4,1.7c0.7,0.7,1.2,1.6,1.6,2.7c0.4,1,0.6,2.2,0.6,3.5c0,1.7-0.4,3.2-1.1,4.5
		c-0.7,1.3-1.7,2.3-2.9,3C141.8,345.7,140.4,346,138.7,346z M138.6,343.5c1.6,0,2.9-0.5,3.9-1.5c1-1,1.4-2.5,1.4-4.4
		c0-1.9-0.5-3.4-1.4-4.4c-1-1.1-2.3-1.6-3.9-1.6c-1.6,0-2.9,0.5-3.9,1.6c-1,1-1.5,2.4-1.5,4.2c0,2,0.5,3.6,1.4,4.6
		C135.6,343,137,343.5,138.6,343.5z"/>
	<path class="st3" d="M160,346c-1.7,0-3.2-0.4-4.5-1.1c-1.3-0.7-2.2-1.7-2.9-3c-0.7-1.3-1-2.8-1-4.6c0-1.7,0.3-3.2,1-4.5
		c0.7-1.3,1.6-2.3,2.9-3c1.3-0.7,2.7-1.1,4.4-1.1c1.7,0,3.2,0.4,4.5,1.1c1.2,0.7,2.2,1.7,2.9,3c0.7,1.3,1,2.8,1,4.5
		c0,1.8-0.3,3.3-1,4.6c-0.7,1.3-1.6,2.3-2.9,3C163.2,345.7,161.7,346,160,346z M160,343.4c1.7,0,3-0.6,3.9-1.7
		c0.9-1.1,1.4-2.6,1.4-4.4c0-1.8-0.5-3.3-1.4-4.4c-0.9-1.1-2.2-1.6-3.9-1.6c-1.7,0-3,0.5-3.9,1.6c-1,1.1-1.4,2.5-1.4,4.4
		c0,1.8,0.5,3.3,1.4,4.4C157,342.8,158.3,343.4,160,343.4z"/>
	<path class="st3" d="M173.9,345.7v-16.8h3.1v6.9h3.2l5.7-6.9h3.4l-6.7,8.2l-0.5-0.8c0.7,0.1,1.3,0.3,1.8,0.5c0.5,0.3,1,0.6,1.4,1.1
		c0.4,0.5,0.9,1.1,1.4,1.9l3.6,5.8h-3.3l-3.1-4.9c-0.3-0.6-0.7-1-1-1.4c-0.3-0.4-0.7-0.6-1.2-0.8c-0.5-0.2-1-0.3-1.8-0.3H177v7.4
		H173.9z"/>
	<path class="st3" d="M201.3,346c-1.7,0-3.2-0.4-4.5-1.1c-1.3-0.7-2.2-1.7-2.9-3c-0.7-1.3-1-2.8-1-4.6c0-1.7,0.3-3.2,1-4.5
		c0.7-1.3,1.6-2.3,2.9-3c1.3-0.7,2.7-1.1,4.4-1.1c1.7,0,3.2,0.4,4.5,1.1c1.2,0.7,2.2,1.7,2.9,3c0.7,1.3,1,2.8,1,4.5
		c0,1.8-0.3,3.3-1,4.6c-0.7,1.3-1.6,2.3-2.9,3C204.5,345.7,203,346,201.3,346z M201.3,343.4c1.7,0,3-0.6,3.9-1.7
		c0.9-1.1,1.4-2.6,1.4-4.4c0-1.8-0.5-3.3-1.4-4.4c-0.9-1.1-2.2-1.6-3.9-1.6c-1.7,0-3,0.5-3.9,1.6c-1,1.1-1.4,2.5-1.4,4.4
		c0,1.8,0.5,3.3,1.4,4.4C198.3,342.8,199.6,343.4,201.3,343.4z"/>
	<path class="st3" d="M215.2,345.7v-16.8h3.1v6.8h9.6v-6.8h3v16.8h-3v-7.4h-9.6v7.4H215.2z"/>
	<path class="st3" d="M245.1,346c-1.7,0-3.2-0.4-4.5-1.1c-1.3-0.7-2.3-1.7-3-3s-1-2.8-1-4.6c0-1.8,0.4-3.3,1.1-4.6
		c0.7-1.3,1.7-2.3,3-3s2.8-1,4.5-1c1.2,0,2.3,0.2,3.3,0.6c1,0.4,1.9,0.9,2.6,1.6l-1.1,2.3c-0.7-0.6-1.4-1-2.2-1.3
		c-0.8-0.3-1.6-0.5-2.4-0.5c-1.8,0-3.2,0.5-4.2,1.6s-1.5,2.5-1.5,4.5c0,1.9,0.5,3.4,1.5,4.4s2.4,1.6,4.2,1.6c0.8,0,1.6-0.2,2.4-0.5
		c0.8-0.3,1.5-0.7,2.1-1.3l1.1,2.3c-0.7,0.6-1.5,1.1-2.5,1.5S246.2,346,245.1,346z"/>
	<path class="st3" d="M263.5,346c-1.9,0-3.5-0.3-4.9-1s-2.4-1.7-3.2-3c-0.7-1.3-1.1-2.9-1.1-4.7c0-1.7,0.3-3.1,1-4.4
		c0.7-1.3,1.6-2.3,2.9-3.1c1.3-0.8,2.8-1.1,4.5-1.1c1.7,0,3.1,0.4,4.2,1.1c1.2,0.7,2,1.7,2.6,3s0.9,2.8,0.9,4.6v0.9h-13.9V336h11.9
		l-0.6,0.7c0-1.8-0.4-3.3-1.3-4.3c-0.9-1-2.2-1.5-3.8-1.5c-1.1,0-2,0.2-2.8,0.7c-0.8,0.5-1.5,1.1-1.9,2c-0.5,0.9-0.7,1.9-0.7,3.2
		v0.3c0,1.4,0.3,2.5,0.8,3.4c0.5,0.9,1.2,1.6,2.2,2.1c0.9,0.5,2.1,0.7,3.4,0.7c0.9,0,1.8-0.1,2.8-0.4c1-0.2,1.9-0.7,2.7-1.4l1,2.2
		c-0.9,0.7-1.9,1.2-3.1,1.6C265.9,345.9,264.7,346,263.5,346z"/>
	<path class="st3" d="M276,351.8v-22.9h2.8v3.6h0.1c0.5-1.2,1.3-2.2,2.4-2.9s2.3-1,3.8-1c1.6,0,2.9,0.4,4.1,1.1
		c1.2,0.7,2.1,1.7,2.7,3s0.9,2.8,0.9,4.6c0,1.7-0.3,3.2-0.9,4.5c-0.6,1.3-1.5,2.3-2.7,3.1c-1.2,0.7-2.5,1.1-4.1,1.1
		c-1.4,0-2.6-0.3-3.6-1c-1-0.7-1.8-1.6-2.3-2.7h-0.1v9.5H276z M284.4,343.5c1.7,0,3-0.6,3.9-1.7c0.9-1.1,1.4-2.6,1.4-4.5
		c0-1.9-0.5-3.4-1.4-4.5c-0.9-1.1-2.2-1.6-3.9-1.6c-1.6,0-2.9,0.5-3.9,1.6c-1,1.1-1.4,2.6-1.4,4.5c0,1.9,0.5,3.4,1.4,4.5
		C281.5,342.9,282.8,343.5,284.4,343.5z"/>
	<path class="st3" d="M298.4,345.7v-16.8h9.1c1.4,0,2.5,0.2,3.4,0.5c0.9,0.3,1.6,0.8,2,1.5c0.4,0.6,0.7,1.4,0.7,2.4
		c0,0.9-0.3,1.6-0.8,2.3c-0.5,0.6-1.2,1.1-2,1.4v0.1c0.7,0.2,1.4,0.5,1.9,0.8c0.5,0.4,0.9,0.8,1.1,1.4s0.4,1.1,0.4,1.8
		c0,1.4-0.6,2.5-1.7,3.4c-1.1,0.8-2.7,1.3-4.7,1.3H298.4z M301.4,336.1h5.9c1.1,0,1.9-0.2,2.5-0.7c0.6-0.5,0.9-1.1,0.9-1.9
		c0-0.8-0.3-1.5-0.9-1.9c-0.6-0.4-1.4-0.6-2.5-0.6h-5.9V336.1z M301.4,343.6h6.2c1.1,0,2-0.2,2.7-0.6c0.6-0.4,1-1.1,1-2
		c0-0.9-0.3-1.6-1-2c-0.6-0.4-1.5-0.7-2.7-0.7h-6.2V343.6z"/>
	<path class="st3" d="M319.6,345.7v-16.8h3.1v6.8h9.6v-6.8h3v16.8h-3v-7.4h-9.6v7.4H319.6z"/>
	<path class="st3" d="M341.9,345.7v-16.8h3.1v5.7h5.5c2.3,0,4,0.5,5.1,1.4c1.2,1,1.7,2.3,1.7,4c0,1.1-0.3,2.1-0.8,2.9
		c-0.5,0.8-1.3,1.5-2.3,1.9c-1,0.5-2.3,0.7-3.7,0.7H341.9z M345,343.4h5.1c1.3,0,2.4-0.3,3.1-0.8c0.7-0.5,1.1-1.3,1.1-2.5
		c0-1.2-0.4-2-1.1-2.5c-0.7-0.5-1.8-0.7-3.1-0.7H345V343.4z M360.6,345.7v-16.8h3.1v16.8H360.6z"/>
	<path class="st3" d="M370.2,345.7v-16.8h2.9v12.8l9.6-12.8h2.9v16.8h-2.9v-12.8l-9.6,12.8H370.2z M378,326.6c-1,0-1.9-0.2-2.7-0.5
		c-0.8-0.4-1.5-0.9-2.1-1.6s-1-1.6-1.2-2.7l2.1-0.5c0.3,1,0.8,1.8,1.5,2.3c0.6,0.5,1.5,0.8,2.5,0.8c1,0,1.8-0.2,2.4-0.7
		c0.6-0.5,1.2-1.3,1.7-2.4l2,0.5c-0.3,1.1-0.8,2-1.4,2.8c-0.6,0.7-1.3,1.2-2.1,1.6S378.9,326.6,378,326.6z"/>
	<path class="st3" d="M164,386.6c-1.6,0-3.1-0.2-4.4-0.6c-1.4-0.4-2.5-0.9-3.3-1.5l1-2.1c0.8,0.6,1.8,1.1,3,1.3
		c1.2,0.3,2.4,0.4,3.6,0.4c1.7,0,2.9-0.2,3.7-0.6c0.8-0.4,1.1-1.1,1.1-2c0-0.9-0.3-1.5-0.9-1.9c-0.6-0.4-1.5-0.6-2.7-0.6h-4.6v-2.3
		h4.3c1,0,1.8-0.2,2.4-0.6c0.6-0.4,0.9-1,0.9-1.8c0-0.8-0.3-1.5-1-1.9c-0.7-0.4-1.7-0.6-3.1-0.6c-1.2,0-2.4,0.1-3.5,0.4
		c-1.1,0.3-2.1,0.7-3.1,1.4l-1-2.3c1-0.7,2.2-1.2,3.5-1.5c1.3-0.3,2.8-0.5,4.3-0.5c2.3,0,3.9,0.4,5.1,1.2c1.1,0.8,1.7,2,1.7,3.5
		c0,0.8-0.2,1.6-0.7,2.2c-0.5,0.6-1.2,1.1-2.2,1.4v0.1c0.8,0.2,1.5,0.5,2,0.8c0.5,0.4,0.9,0.8,1.2,1.3c0.3,0.5,0.4,1.1,0.4,1.8
		c0,1.5-0.6,2.7-1.9,3.6C168.5,386.1,166.6,386.6,164,386.6z"/>
	<path class="st3" d="M182.8,386.6c-1.2,0-2.3-0.2-3.2-0.7c-1-0.4-1.7-1-2.3-1.8c-0.6-0.8-0.8-1.6-0.8-2.6c0-1.3,0.4-2.3,1.1-3.1
		s1.9-1.3,3.4-1.6c1.5-0.3,3.4-0.5,5.7-0.5h2.6v2.1h-2.5c-1.3,0-2.4,0-3.3,0.1s-1.7,0.2-2.3,0.4c-0.6,0.2-1,0.5-1.3,0.9
		c-0.3,0.4-0.4,0.8-0.4,1.4c0,0.9,0.4,1.6,1.1,2.1c0.7,0.5,1.7,0.7,2.8,0.7c1,0,1.9-0.2,2.7-0.7c0.8-0.5,1.5-1,2-1.8
		c0.5-0.7,0.8-1.5,0.8-2.4v-3.9c0-1.3-0.4-2.3-1.2-2.8c-0.8-0.6-1.9-0.9-3.4-0.9c-1,0-2,0.1-3,0.4s-2,0.7-3.1,1.4l-1-2.3
		c0.7-0.4,1.5-0.8,2.3-1.1s1.7-0.5,2.5-0.7c0.9-0.1,1.7-0.2,2.6-0.2c1.4,0,2.7,0.2,3.8,0.7c1.1,0.5,1.9,1.2,2.6,2.1
		c0.6,1,0.9,2.2,0.9,3.7v10.6h-2.7v-3.6h-0.1c-0.3,0.7-0.8,1.3-1.4,1.9c-0.6,0.6-1.3,1.1-2.1,1.5
		C184.8,386.4,183.9,386.6,182.8,386.6z"/>
	<path class="st3" d="M198.4,386.3v-16.8h9.1c1.4,0,2.5,0.2,3.4,0.5c0.9,0.3,1.6,0.8,2,1.5c0.4,0.6,0.7,1.4,0.7,2.4
		c0,0.9-0.3,1.6-0.8,2.3c-0.5,0.6-1.2,1.1-2,1.4v0.1c0.7,0.2,1.4,0.5,1.9,0.8c0.5,0.4,0.9,0.8,1.1,1.4c0.3,0.5,0.4,1.1,0.4,1.8
		c0,1.4-0.6,2.5-1.7,3.4c-1.1,0.8-2.7,1.3-4.7,1.3H198.4z M201.4,376.7h5.9c1.1,0,1.9-0.2,2.5-0.7c0.6-0.5,0.9-1.1,0.9-1.9
		c0-0.8-0.3-1.5-0.9-1.9c-0.6-0.4-1.4-0.6-2.5-0.6h-5.9V376.7z M201.4,384.1h6.2c1.1,0,2-0.2,2.7-0.6c0.6-0.4,1-1.1,1-2
		c0-0.9-0.3-1.6-1-2c-0.6-0.4-1.5-0.7-2.7-0.7h-6.2V384.1z"/>
	<path class="st3" d="M227,386.6c-1.7,0-3.2-0.4-4.5-1.1c-1.3-0.7-2.2-1.7-2.9-3c-0.7-1.3-1-2.8-1-4.6c0-1.7,0.3-3.2,1-4.5
		c0.7-1.3,1.6-2.3,2.9-3c1.3-0.7,2.7-1.1,4.4-1.1c1.7,0,3.2,0.4,4.5,1.1c1.2,0.7,2.2,1.7,2.9,3c0.7,1.3,1,2.8,1,4.5
		c0,1.8-0.3,3.3-1,4.6c-0.7,1.3-1.6,2.3-2.9,3C230.2,386.2,228.7,386.6,227,386.6z M227,383.9c1.7,0,3-0.6,3.9-1.7
		c0.9-1.1,1.4-2.6,1.4-4.4c0-1.8-0.5-3.3-1.4-4.4c-0.9-1.1-2.2-1.6-3.9-1.6c-1.7,0-3,0.5-3.9,1.6c-1,1.1-1.4,2.5-1.4,4.4
		c0,1.8,0.5,3.3,1.4,4.4C224,383.4,225.3,383.9,227,383.9z"/>
	<path class="st3" d="M239.1,390.8v-7.1h1.9c0.6-0.8,1-1.6,1.4-2.5c0.3-0.9,0.6-1.9,0.7-3c0.2-1.1,0.2-2.4,0.2-3.8v-4.9h12.8v14.2
		h2.8v7.1h-2.7v-4.5h-14.4v4.5H239.1z M244,383.7h9.2V372H246l0,2.9c0,1.8-0.2,3.4-0.5,4.8C245.2,381.3,244.7,382.6,244,383.7z"/>
	<path class="st3" d="M279.8,386.6c-1,0-2-0.1-2.9-0.3c-1-0.2-1.9-0.5-2.8-0.9c-0.9-0.4-1.7-1-2.4-1.6l1.2-2.4
		c1.1,0.9,2.2,1.6,3.4,2c1.2,0.4,2.4,0.6,3.5,0.6c1,0,1.9-0.1,2.7-0.4c0.8-0.3,1.4-0.7,1.9-1.4c0.5-0.6,0.7-1.4,0.7-2.4
		c0-1.4-0.5-2.4-1.4-3.1c-0.9-0.7-2.3-1.1-4.1-1.1H276v-2.6h3.1c1,0,1.9-0.2,2.7-0.5c0.8-0.3,1.4-0.8,1.9-1.5
		c0.5-0.7,0.7-1.5,0.7-2.4c0-1.2-0.4-2.2-1.3-2.8c-0.9-0.6-1.9-0.9-3.3-0.9c-1.2,0-2.3,0.2-3.5,0.6c-1.2,0.4-2.2,1.1-3.2,2.1
		l-1.1-2.4c0.9-1,2.1-1.8,3.5-2.3c1.4-0.5,2.9-0.7,4.4-0.7s2.8,0.2,3.9,0.7c1.1,0.5,2,1.2,2.6,2.1c0.6,0.9,0.9,2,0.9,3.3
		c0,1.3-0.4,2.5-1.1,3.5c-0.8,1-1.8,1.8-3.1,2.2v0.1c0.9,0.2,1.7,0.5,2.4,1s1.3,1.2,1.7,1.9c0.4,0.8,0.6,1.7,0.6,2.8
		c0,1.5-0.3,2.7-1,3.7c-0.7,1-1.6,1.8-2.9,2.3C282.9,386.3,281.4,386.6,279.8,386.6z"/>
	<path class="st3" d="M294.1,386.3l11.7-22.6l0.2,1.5h-13.5v-2.7h16v2.3l-11,21.5H294.1z"/>
</g>
</svg>
