<svg xmlns="http://www.w3.org/2000/svg" viewBox="0 0 242.9 241.7">
  <defs/>
  <path d="M236.3 164.6l-54.5-35.9v13h-5.9c-3 .1-6.3.2-9.9.3v-31.3c0-43.9-36-80.5-79.9-80.4-1.1 0-2.3 0-3.4.1.2-.1.4-.1.4-.1s-18.2-1-38.3 11.6c-8.7 5.3-16.3 12.2-22.4 20.3-11.3 14.1-16 28.6-15.9 47.4v.4c0 19.2 6.8 36.8 18.1 50.6.4.5.7.9 1 1.4 4.4 5.7 13.8 14.1 25.2 19.5 12 7.7 42 8.1 76.3 7.5 6.2 13.8 16.7 25.6 30.4 35l8.5 5.8v-41.5c3.7 0 7.4-.1 11.1-.1h4.7V200l54.5-35.4zM69.7 140.1c-10.5-5.8-17.6-16.8-17.8-29.6C51.7 92 66.4 76.4 85 75.7c19.6-.7 35.7 14.9 35.7 34.3v32h-1.4c-28.5-.2-31.2 1.7-49.6-1.9z"/>
</svg>
